<svg class="icon icon--logo" viewBox="0 0 11403.000000 2276.000000">

<g transform="translate(0.000000,2276.000000) scale(0.100000,-0.100000)" stroke="none">
<path d="M4 13293 c3 -5208 9 -10329 12 -11381 l6 -1912 9609 0 c5285 0 9609
2 9609 4 0 2 -1488 2554 -3306 5672 -1818 3118 -3308 5674 -3311 5681 -2 6
1485 2572 3306 5702 1821 3129 3311 5692 3311 5695 0 4 -4329 6 -9621 6
l-9621 0 6 -9467z m12646 5712 c0 -3 -991 -1710 -2202 -3793 -1211 -2083
-2206 -3798 -2211 -3812 -9 -23 214 -410 2202 -3829 1216 -2093 2211 -3806
2211 -3808 0 -2 -1998 -3 -4440 -3 l-4440 0 0 7625 0 7625 4440 0 c2442 0
4440 -2 4440 -5z"/>
<path d="M18655 17073 c-1820 -3127 -3309 -5690 -3307 -5696 2 -5 1491 -2568
3310 -5694 l3307 -5683 6674 2 6674 3 3330 5680 c1831 3124 3331 5685 3333
5690 2 6 -1496 2568 -3330 5695 l-3335 5685 -6673 2 -6673 2 -3310 -5686z
m16677 -1863 c1219 -2087 2222 -3805 2229 -3817 10 -19 -214 -407 -2217 -3827
l-2229 -3805 -4467 -1 -4467 0 -2215 3798 c-1218 2089 -2216 3803 -2218 3809
-2 6 996 1728 2217 3827 l2219 3816 4465 -2 4465 -3 2218 -3795z"/>
<path d="M26490 15283 c-1603 -338 -2917 -617 -2919 -619 -9 -8 259 -4588 269
-4594 6 -4 256 -96 555 -206 300 -109 539 -201 532 -205 -7 -4 -250 -60 -542
-125 l-529 -119 819 -3 c450 -1 820 0 823 3 3 2 58 1000 123 2216 65 1216 119
2213 121 2214 2 2 52 -884 112 -1968 59 -1085 111 -1975 114 -1978 4 -3 255
-92 557 -198 303 -106 553 -196 557 -199 4 -4 -234 -59 -530 -122 l-537 -115
954 -3 c525 -1 955 -1 956 0 2 2 47 799 101 1773 59 1052 102 1754 106 1730 4
-22 44 -643 88 -1380 44 -736 85 -1342 90 -1345 5 -3 340 -124 744 -270 405
-145 736 -267 736 -270 0 -3 -319 -54 -709 -115 l-709 -110 1080 -3 c595 -1
1082 -1 1083 0 1 2 47 827 101 1835 54 1007 100 1830 102 1828 2 -2 46 -637
97 -1410 52 -774 97 -1411 102 -1415 4 -4 377 -143 828 -308 451 -165 813
-303 805 -306 -8 -2 -363 -55 -789 -118 l-773 -113 1113 -3 c612 -1 1115 0
1118 3 2 3 9 67 13 143 5 75 18 236 29 357 25 283 361 5656 354 5663 -6 6
-4165 471 -4205 471 -14 -1 -1337 -278 -2940 -616z"/>
<path d="M33781 12557 c-1 -4 -26 -454 -56 -1000 -61 -1096 -92 -1626 -100
-1672 -5 -32 -45 -574 -45 -612 l0 -23 470 0 c259 0 470 2 470 5 0 9 -721
3249 -730 3280 -4 17 -9 27 -9 22z"/>
<path d="M29794 8913 c-81 -145 -819 -1590 -815 -1594 6 -7 4266 -460 4311
-459 22 1 86 106 625 1030 330 566 601 1033 603 1039 3 8 -289 11 -1001 11
l-1004 0 -273 -727 c-150 -401 -279 -739 -286 -753 -11 -21 -13 102 -14 728
l0 752 -1065 0 -1066 0 -15 -27z"/>
<path d="M38093 22718 c2050 -3519 6587 -11335 6583 -11343 -4 -12 -6579
-11315 -6604 -11353 l-14 -22 2183 2 2183 3 2816 4828 c1549 2655 2820 4831
2826 4836 5 6 1058 -1786 2829 -4816 1551 -2654 2825 -4832 2830 -4840 8 -11
364 -13 2186 -11 l2177 3 -3295 5670 c-1812 3119 -3299 5679 -3304 5690 -8 17
515 925 3262 5655 1799 3099 3285 5659 3301 5688 l30 52 -2180 0 -2179 0 -171
-292 c-1858 -3187 -5474 -9374 -5480 -9375 -4 -2 -1279 2172 -2834 4830
l-2827 4832 -2171 3 -2172 2 25 -42z"/>
<path d="M78438 14465 c-176 -24 -363 -86 -504 -167 -158 -90 -356 -238 -540
-405 -58 -52 -1059 -1162 -2572 -2852 -1362 -1521 -2492 -2783 -2511 -2803
l-33 -38 1143 1 1144 0 1834 2040 c1009 1121 1836 2039 1837 2039 1 0 240
-469 530 -1042 521 -1030 613 -1206 719 -1376 29 -47 53 -87 52 -88 -1 0 -58
3 -127 7 -69 4 -669 8 -1335 8 l-1210 0 -723 -790 c-398 -435 -722 -793 -719
-795 2 -2 1636 -3 3630 -2 l3627 3 -1450 2790 c-798 1535 -1471 2824 -1497
2865 -105 172 -276 358 -410 444 -228 147 -553 206 -885 161z"/>
<path d="M87845 14473 c-288 -37 -585 -174 -761 -350 -182 -182 -296 -410
-354 -706 -11 -56 -223 -1243 -471 -2637 -247 -1394 -453 -2545 -456 -2557
l-5 -23 875 0 875 0 5 23 c3 12 148 819 322 1792 174 974 319 1778 323 1787 5
13 391 -387 1652 -1714 905 -952 1672 -1754 1705 -1783 182 -159 373 -217 666
-200 219 12 417 72 589 177 152 93 337 304 443 508 59 112 100 236 132 395 24
123 945 5181 945 5191 0 2 -396 4 -880 4 l-880 0 -9 -22 c-4 -13 -151 -824
-326 -1803 -175 -979 -321 -1784 -325 -1788 -4 -4 -729 754 -1612 1685 -883
931 -1644 1730 -1691 1775 -48 46 -112 99 -143 119 -150 96 -425 152 -619 127z"/>
<path d="M98614 14464 c-331 -55 -661 -252 -820 -489 -102 -152 -167 -294
-214 -470 -25 -91 -950 -5246 -950 -5291 0 -12 131 -14 878 -14 l877 0 318
1778 c175 977 322 1792 325 1811 7 33 8 33 1608 -1655 881 -929 1644 -1730
1695 -1779 145 -138 239 -193 397 -232 95 -23 394 -23 515 1 229 44 422 149
598 325 175 176 281 370 354 649 21 79 932 5096 952 5240 l6 42 -879 -2 -878
-3 -317 -1765 c-173 -971 -320 -1786 -325 -1812 l-9 -47 -1638 1727 c-901 950
-1667 1751 -1702 1781 -105 88 -175 130 -272 161 -183 59 -349 73 -519 44z"/>
<path d="M56724 13578 c-423 -441 -770 -805 -772 -810 -2 -4 654 -8 1457 -8
1051 0 1461 -3 1461 -11 0 -10 -783 -4459 -796 -4522 l-6 -27 968 2 968 3 408
2275 c224 1251 407 2276 407 2278 1 1 502 2 1114 2 l1112 0 765 791 c421 435
771 800 779 810 13 19 -55 19 -3541 19 l-3554 0 -770 -802z"/>
<path d="M64620 13578 c-423 -442 -770 -806 -770 -810 0 -4 1284 -9 2853 -11
l2852 -3 98 -22 c280 -64 444 -170 525 -337 41 -83 56 -166 50 -278 -6 -103
-29 -180 -80 -265 -88 -145 -189 -234 -368 -326 -188 -96 -357 -145 -575 -166
-73 -6 -1036 -10 -2862 -10 l-2753 0 -5 -22 c-6 -26 -540 -3020 -551 -3085
l-7 -43 966 0 965 0 6 28 c3 15 65 369 136 787 72 418 133 772 136 788 l6 27
1490 -2 1491 -3 544 -805 c299 -443 547 -808 552 -813 4 -4 591 -6 1305 -5
l1298 3 -478 600 c-666 837 -814 1014 -1016 1221 l-177 180 152 38 c629 156
1160 521 1498 1029 175 265 279 521 340 842 30 158 38 477 15 635 -52 354
-176 613 -414 862 -446 467 -1181 715 -2242 758 -129 5 -1129 10 -2222 10
l-1988 0 -770 -802z"/>
<path d="M84265 14358 c-3 -13 -253 -1395 -555 -3073 -303 -1677 -553 -3058
-556 -3067 -5 -17 46 -18 973 -18 l979 0 542 3083 c299 1695 542 3085 542
3090 0 4 -432 7 -960 7 l-960 0 -5 -22z"/>
<path d="M95025 14368 c-2 -7 -254 -1385 -560 -3063 -305 -1677 -558 -3062
-561 -3078 l-6 -27 978 2 978 3 552 3080 c303 1694 550 3083 547 3088 -2 4
-436 7 -964 7 -759 0 -961 -3 -964 -12z"/>
<path d="M109305 14369 c-752 -28 -1468 -205 -2110 -519 -631 -309 -1100 -703
-1482 -1245 -248 -352 -394 -710 -467 -1145 -81 -481 -53 -954 83 -1359 256
-767 792 -1305 1631 -1639 351 -140 721 -221 1145 -252 88 -6 968 -10 2387
-10 l2247 0 10 53 c6 28 162 887 346 1907 184 1020 338 1865 340 1878 l5 22
-2005 0 -2005 0 -706 -682 -705 -683 1615 -3 c889 -1 1616 -5 1616 -10 0 -4
-34 -202 -75 -441 -41 -238 -75 -437 -75 -443 0 -14 -2595 -4 -2695 11 -430
65 -723 195 -946 420 -224 226 -322 475 -321 821 0 404 128 712 432 1042 178
193 415 359 661 461 140 59 370 133 490 157 246 50 235 50 2054 50 l1700 0
725 751 c399 412 749 777 778 810 l54 59 -2264 -2 c-1244 0 -2353 -5 -2463 -9z"/>
<path d="M74505 5505 c-197 -31 -304 -75 -409 -169 -81 -72 -114 -126 -147
-241 l-24 -80 0 -770 0 -770 28 -95 c16 -52 40 -114 53 -137 32 -54 146 -153
215 -186 78 -36 263 -75 419 -87 81 -6 598 -10 1303 -10 l1167 0 0 255 0 255
-1235 0 c-842 0 -1250 3 -1284 11 -68 14 -112 45 -139 99 l-23 45 3 627 c3
618 3 627 24 655 26 35 75 69 123 85 28 10 321 13 1284 16 l1247 2 0 255 0
255 -1262 -1 c-963 -1 -1282 -4 -1343 -14z"/>
<path d="M80542 4243 l3 -1278 1160 0 1160 0 0 250 0 250 -907 3 -908 2 0
1025 0 1025 -255 0 -255 0 2 -1277z"/>
<path d="M86160 4547 c0 -1088 1 -1099 65 -1232 42 -87 89 -142 170 -200 84
-60 135 -81 263 -110 181 -41 348 -47 1217 -42 660 4 814 7 880 20 230 44 317
80 409 170 99 97 161 243 176 412 5 55 9 517 10 1028 l0 927 -255 0 -254 0 -3
-947 c-3 -1060 3 -978 -75 -1042 -75 -62 -51 -61 -999 -61 -578 0 -880 4 -913
11 -68 14 -112 45 -138 99 l-23 44 0 948 0 948 -265 0 -265 0 0 -973z"/>
<path d="M92862 4243 l3 -1278 1275 0 c982 0 1293 3 1355 13 210 33 343 88
433 179 119 119 142 208 142 548 0 385 -25 448 -218 558 l-43 24 53 26 c29 15
76 47 105 72 80 70 86 95 91 377 2 147 0 264 -7 310 -30 194 -158 334 -366
398 -163 50 -169 50 -1543 50 l-1282 0 2 -1277z m2608 746 c70 -33 75 -44 78
-211 4 -163 -3 -196 -45 -223 -65 -43 -108 -45 -1145 -45 l-988 0 0 250 0 251
1033 -3 c924 -3 1036 -5 1067 -19z m-142 -949 c50 -5 106 -19 138 -34 77 -36
84 -56 84 -253 0 -191 -8 -215 -85 -253 l-50 -25 -1022 -3 -1023 -2 0 290 0
290 938 0 c532 0 973 -4 1020 -10z"/>
</g>
</svg>
