<svg class="icon icon--escudo" viewBox="0 0 1652.000000 1908.000000">

<g transform="translate(0.000000,1908.000000) scale(0.100000,-0.100000)" stroke="none">
<path d="M4128 16697 l-4127 -2382 0 -4775 0 -4775 4129 -2383 4130 -2383
4130 2383 4130 2382 0 4776 0 4775 -4119 2377 c-2266 1308 -4125 2380 -4133
2383 -7 3 -1870 -1067 -4140 -2378z m7862 -712 l3715 -2144 0 -4301 0 -4302
-3722 -2148 -3723 -2149 -3720 2147 -3719 2147 2 4305 2 4304 3710 2143 c2041
1178 3717 2143 3725 2143 8 0 1687 -965 3730 -2145z m-5582 1524 c41 -71 71
-137 68 -145 -7 -20 -45 -18 -226 11 -85 13 -156 23 -157 22 -1 -2 22 -45 52
-96 30 -51 55 -97 55 -101 0 -4 -11 -12 -24 -18 -23 -10 -27 -7 -93 111 -38
67 -72 130 -76 139 -13 37 15 38 202 8 100 -17 184 -30 186 -30 3 0 -20 42
-50 93 -30 52 -55 99 -55 105 0 10 27 31 40 31 3 0 38 -58 78 -130z m-536
-174 c6 -14 9 -26 7 -28 -2 -2 -66 -38 -141 -81 -76 -42 -138 -79 -138 -81 0
-12 13 -35 20 -35 5 0 60 30 121 66 105 61 114 64 126 48 19 -26 17 -30 -29
-57 -24 -13 -76 -43 -115 -66 l-73 -42 20 -39 c11 -22 25 -40 30 -40 5 0 71
36 146 80 127 74 138 79 150 63 7 -10 13 -22 14 -28 0 -9 -298 -186 -325 -193
-11 -3 -165 246 -165 265 1 8 317 191 333 192 4 1 13 -10 19 -24z m-428 -385
c42 -71 76 -133 76 -138 0 -5 -10 -14 -23 -19 -22 -10 -26 -6 -62 58 -36 65
-40 68 -59 56 -12 -8 -63 -37 -114 -67 -51 -29 -94 -56 -96 -59 -2 -3 13 -36
34 -72 l38 -67 -24 -13 c-13 -7 -27 -9 -31 -6 -3 4 -39 64 -80 134 -66 116
-72 129 -56 141 27 19 36 15 61 -28 13 -22 26 -39 30 -37 66 37 222 130 222
133 0 3 -10 23 -21 46 -20 40 -21 42 -3 55 10 7 21 13 25 13 4 0 41 -58 83
-130z m5912 54 c74 -42 136 -79 138 -83 3 -4 -3 -16 -12 -28 l-17 -22 -118 70
c-116 69 -149 79 -155 48 -2 -12 26 -32 93 -70 97 -53 145 -96 145 -127 0 -10
-15 -40 -33 -67 -31 -47 -35 -50 -72 -49 -30 1 -72 20 -167 75 -71 40 -128 78
-128 84 0 6 6 19 13 28 11 14 26 8 146 -60 l134 -77 19 24 c33 41 20 59 -82
116 -94 53 -140 92 -140 120 0 8 11 32 25 54 19 30 32 40 51 40 14 0 86 -34
160 -76z m493 -288 c58 -34 108 -71 114 -83 20 -45 -49 -153 -98 -153 -14 0
-77 29 -139 65 -62 36 -117 65 -122 65 -5 0 -19 -18 -32 -40 -25 -44 -30 -46
-56 -27 -17 13 -13 22 60 150 l79 136 45 -26 c25 -14 92 -53 149 -87z m-6932
67 c13 -19 10 -23 -57 -62 -38 -23 -70 -44 -70 -46 0 -2 27 -49 60 -105 33
-56 60 -105 60 -109 0 -4 -11 -13 -24 -19 -24 -10 -27 -7 -80 86 -31 53 -60
103 -64 110 -7 10 -25 3 -78 -28 l-69 -40 -17 22 c-9 13 -14 25 -12 28 15 14
320 188 328 186 5 -1 15 -11 23 -23z m7245 -245 c15 -12 8 -27 -60 -145 -42
-73 -82 -133 -88 -133 -5 0 -18 6 -27 13 -15 11 -9 25 59 145 42 72 82 132 88
132 7 0 19 -6 28 -12z m-7706 -15 c7 -10 14 -21 14 -24 0 -4 -59 -39 -131 -79
-72 -40 -133 -79 -137 -88 -7 -19 55 -140 79 -155 12 -8 41 4 127 53 111 63
111 63 97 89 -34 65 -32 65 -130 6 -87 -52 -90 -53 -103 -33 -9 12 -11 23 -5
29 26 26 200 119 217 117 14 -2 37 -29 68 -82 43 -73 46 -81 30 -92 -9 -6 -73
-43 -141 -83 -175 -100 -185 -98 -265 39 -47 80 -54 118 -29 147 17 21 269
173 287 173 5 0 15 -8 22 -17z m8058 -188 c115 -66 134 -90 118 -143 -16 -51
-54 -92 -87 -92 -14 0 -44 9 -65 20 -22 11 -40 16 -40 10 0 -6 16 -42 35 -80
19 -38 35 -72 35 -74 0 -3 -20 7 -44 20 -40 23 -48 34 -81 113 -27 64 -44 92
-65 104 -39 24 -43 22 -70 -25 -13 -24 -24 -44 -25 -46 -1 -1 -14 3 -29 9
l-26 12 26 46 c15 25 51 88 81 139 l54 93 47 -27 c25 -15 87 -51 136 -79z
m-8479 -205 c101 -176 106 -171 -136 -132 -101 16 -185 29 -186 28 -1 0 24
-46 55 -100 53 -94 55 -99 37 -112 -10 -8 -21 -14 -24 -14 -8 0 -145 242 -149
263 -2 9 4 20 13 23 9 4 95 -6 191 -21 96 -15 176 -26 178 -24 2 2 -21 47 -50
99 l-54 95 21 18 c12 10 23 16 25 14 2 -1 37 -63 79 -137z m8802 17 c21 -12
20 -14 -55 -144 -43 -73 -82 -133 -88 -133 -5 0 -18 6 -27 13 -15 11 -10 24
59 145 41 72 78 132 82 132 4 -1 17 -6 29 -13z m323 -185 c85 -49 155 -93 157
-98 1 -5 -4 -17 -12 -28 -13 -18 -17 -17 -79 18 -35 20 -68 36 -73 36 -4 0
-35 -47 -68 -105 -33 -58 -64 -105 -70 -105 -5 1 -18 7 -28 14 -16 13 -13 21
43 117 33 57 60 109 60 114 0 6 -29 27 -65 46 -36 18 -65 38 -65 42 0 19 22
48 33 44 7 -3 82 -45 167 -95z m-9658 -24 c-4 -3 -67 -41 -139 -83 -73 -42
-135 -80 -138 -85 -2 -4 2 -13 10 -20 12 -10 35 0 127 53 101 59 114 64 126
49 7 -9 11 -21 9 -27 -2 -5 -54 -38 -115 -73 l-112 -63 23 -40 c12 -21 27 -39
32 -39 6 0 72 36 148 80 l138 79 11 -24 c6 -14 9 -27 7 -29 -8 -8 -321 -186
-328 -186 -3 0 -30 42 -58 93 -29 50 -64 111 -78 134 l-25 42 167 95 168 96
17 -23 c9 -12 14 -25 10 -29z m10116 -240 c70 -39 131 -75 135 -79 9 -7 -13
-49 -25 -49 -5 0 -64 32 -133 71 -68 39 -129 68 -135 64 -26 -16 1 -42 105
-104 130 -78 141 -96 107 -166 -12 -24 -33 -52 -47 -61 -23 -15 -32 -16 -61
-5 -48 17 -267 144 -271 156 -2 6 3 19 10 29 13 18 21 15 135 -53 66 -39 130
-71 142 -71 23 0 46 40 37 63 -3 8 -51 41 -107 72 -137 78 -151 100 -105 168
37 54 62 50 213 -35z m-10586 -37 c62 -73 59 -123 -11 -163 -23 -13 -41 -26
-41 -30 0 -5 19 -8 43 -9 23 0 65 -4 92 -8 l50 -7 -45 -23 c-42 -23 -49 -23
-140 -13 -88 9 -97 9 -128 -10 l-33 -20 26 -45 c31 -56 31 -57 1 -71 -22 -10
-26 -5 -97 121 -41 72 -75 134 -77 138 -3 6 234 149 268 162 37 14 69 6 92
-22z m-472 -258 c0 -7 -21 -24 -47 -37 -96 -49 -94 -39 -25 -161 34 -59 62
-108 62 -110 0 -1 -11 -10 -24 -18 l-24 -16 -63 109 c-35 61 -67 110 -71 110
-4 0 -33 -16 -65 -35 -32 -19 -63 -35 -70 -35 -14 0 -38 39 -29 47 3 3 78 48
168 99 148 85 164 92 176 77 6 -9 12 -23 12 -30z m-470 -243 c6 -11 8 -24 6
-29 -3 -5 -58 -39 -122 -76 -115 -67 -136 -87 -116 -107 8 -8 41 7 117 51 60
35 120 63 136 63 35 1 64 -23 91 -76 36 -71 21 -90 -171 -196 -108 -60 -114
-62 -127 -45 -8 10 -14 22 -14 26 0 3 57 39 126 79 69 39 128 78 131 86 7 18
-23 64 -41 64 -7 0 -60 -27 -117 -60 -124 -72 -148 -75 -184 -23 -31 46 -32
73 -2 100 21 20 254 160 269 162 4 1 12 -8 18 -19z m-358 -10755 c87 -49 158
-95 158 -101 0 -5 -6 -19 -14 -29 -10 -14 -17 -17 -27 -9 -8 6 -39 25 -70 43
l-57 31 -56 -97 c-79 -138 -70 -127 -97 -113 -13 7 -25 14 -27 15 -2 2 21 43
51 92 88 145 87 126 7 173 -38 22 -70 43 -70 46 0 13 26 44 35 42 6 -2 81 -43
167 -93z m323 -189 c18 -13 18 -14 -3 -48 -12 -20 -22 -40 -22 -46 0 -6 37
-31 83 -57 45 -26 96 -56 114 -67 l32 -19 26 45 c23 39 30 44 45 36 11 -6 21
-14 24 -19 6 -9 -142 -271 -153 -271 -4 0 -15 6 -25 13 -18 13 -17 17 19 81
20 37 36 68 34 70 -2 2 -55 33 -118 69 l-115 66 -41 -70 c-42 -69 -42 -70 -64
-52 l-21 18 76 133 c41 72 79 132 83 132 4 0 16 -6 26 -14z m12349 -80 l16
-25 -143 -82 c-78 -45 -144 -84 -146 -86 -3 -2 2 -11 11 -19 14 -14 26 -10
129 50 103 59 115 64 127 49 7 -10 11 -22 9 -28 -2 -5 -54 -39 -115 -73 l-111
-64 22 -39 c12 -21 26 -39 31 -39 5 0 71 36 148 80 l139 79 11 -24 c6 -14 9
-27 7 -29 -9 -9 -321 -186 -328 -186 -8 0 -154 254 -153 266 0 7 311 193 323
194 4 0 14 -11 23 -24z m-11762 -257 c190 -110 207 -135 148 -217 -39 -55 -67
-61 -126 -28 -26 14 -48 26 -50 26 -1 0 15 -37 36 -82 21 -46 37 -84 35 -86
-2 -2 -21 7 -43 19 -34 20 -44 35 -72 104 -38 93 -39 94 -79 118 l-30 17 -27
-49 c-26 -45 -30 -48 -52 -38 -14 7 -22 17 -19 27 5 19 146 260 152 260 2 0
59 -32 127 -71z m11326 -109 c65 -114 72 -141 47 -177 -15 -21 -209 -135 -253
-148 -14 -4 -32 -1 -46 9 -22 14 -146 213 -146 234 0 5 11 14 23 19 23 11 27
6 83 -90 34 -58 67 -103 77 -105 16 -3 161 74 199 106 20 17 19 21 -49 141
-29 52 -52 95 -51 96 9 6 44 24 48 25 3 0 33 -50 68 -110z m-10833 -175 c115
-62 155 -96 155 -134 0 -33 -95 -197 -122 -212 -28 -15 -56 -6 -161 53 -103
57 -157 102 -157 132 0 22 59 133 96 184 36 46 67 43 189 -23z m10285 -35 c10
-5 32 -34 50 -64 20 -36 38 -56 53 -58 14 -2 30 -19 46 -46 20 -37 21 -46 10
-56 -36 -32 -281 -168 -313 -173 -46 -7 -55 1 -116 102 -79 130 -73 144 90
238 127 72 142 77 180 57z m-9927 -174 c9 -7 17 -16 17 -20 0 -4 -25 -49 -55
-100 -30 -50 -55 -99 -55 -108 0 -21 185 -130 213 -126 14 2 37 33 73 97 29
52 57 98 62 103 5 5 18 1 31 -9 l23 -19 -67 -112 c-61 -104 -87 -132 -123
-132 -14 0 -227 122 -249 143 -37 34 -30 72 38 190 34 59 64 107 68 107 3 0
14 -7 24 -14z m9509 -208 l77 -133 -26 -14 c-22 -11 -27 -11 -34 0 -126 212
-147 254 -131 267 9 6 21 12 27 12 6 0 45 -60 87 -132z m-275 -11 c10 -22 6
-27 -90 -82 -139 -80 -157 -93 -150 -110 9 -25 34 -17 130 39 106 63 126 70
158 62 28 -7 75 -84 75 -124 0 -38 -20 -55 -170 -141 -115 -67 -125 -71 -137
-55 -7 10 -13 21 -13 26 0 4 59 42 130 84 72 42 130 80 130 85 0 16 -23 58
-35 63 -6 2 -59 -22 -116 -54 -135 -76 -151 -80 -184 -44 -33 36 -42 71 -24
102 13 23 250 171 275 172 6 0 16 -10 21 -23z m-8702 -88 c38 -15 249 -145
251 -154 2 -6 -3 -18 -11 -28 -13 -18 -21 -14 -144 57 -71 42 -136 76 -144 76
-8 0 -34 -32 -57 -72 -32 -54 -40 -75 -33 -87 9 -14 198 -129 215 -130 6 -1
48 65 48 77 0 4 -40 30 -90 57 -49 28 -90 52 -90 55 1 12 30 42 38 39 46 -19
203 -118 207 -131 4 -10 -9 -44 -29 -80 -63 -113 -46 -110 -182 -33 -140 80
-184 117 -184 156 0 35 97 198 124 209 21 8 41 6 81 -11z m8293 -270 c29 -48
55 -100 58 -116 8 -42 -21 -70 -147 -141 l-107 -60 -11 25 c-7 14 -10 28 -7
30 3 3 49 31 103 62 72 41 99 62 101 79 2 12 -1 22 -5 22 -5 0 -60 -29 -123
-65 -63 -36 -126 -65 -140 -65 -15 0 -36 10 -47 23 -22 23 -86 128 -81 132 10
8 50 26 52 23 2 -2 19 -29 39 -60 20 -32 43 -58 51 -58 16 0 216 118 216 127
0 2 -16 32 -36 66 l-36 61 23 17 c27 20 18 30 97 -102z m-7857 20 c20 -10 20
-11 -6 -54 l-25 -44 22 -15 c13 -8 66 -40 118 -70 l95 -56 24 40 c24 42 31 46
61 30 17 -9 13 -21 -58 -145 -42 -74 -81 -134 -87 -134 -5 0 -18 5 -27 13 -16
12 -14 18 21 79 28 48 36 69 28 75 -9 7 -169 101 -219 129 -4 2 -23 -25 -43
-59 -21 -35 -38 -65 -40 -66 -7 -8 -45 10 -45 20 0 11 122 228 143 256 12 15
13 15 38 1z m7385 -325 c66 -116 71 -130 57 -141 -26 -20 -31 -16 -61 33 -55
95 -43 93 -162 23 -58 -34 -109 -65 -114 -70 -5 -4 8 -37 29 -74 20 -37 35
-68 33 -69 -1 -2 -13 -8 -25 -15 -26 -13 -19 -22 -112 141 -33 59 -61 112 -61
117 0 10 39 36 44 29 1 -2 13 -20 25 -40 12 -21 26 -38 31 -38 6 0 213 114
229 126 2 2 -8 23 -23 47 l-26 45 23 15 c12 8 26 11 30 7 5 -4 42 -66 83 -136z
m-6702 -70 c4 -9 22 -87 41 -172 19 -85 36 -156 37 -158 2 -1 73 20 158 47 85
27 163 49 172 49 38 0 28 -38 -44 -164 -40 -69 -77 -126 -83 -126 -5 0 -18 7
-28 14 -16 13 -14 19 33 101 28 48 49 90 46 92 -2 2 -61 -14 -130 -37 -70 -23
-137 -40 -149 -38 -20 3 -25 17 -54 146 -17 79 -33 145 -35 147 -1 2 -25 -37
-53 -86 -27 -49 -55 -89 -61 -89 -5 0 -18 6 -28 13 -16 12 -12 22 55 137 40
69 78 128 84 132 17 12 32 9 39 -8z m6156 -94 c22 -12 70 -92 70 -117 0 -35
-30 -62 -145 -128 l-115 -67 26 -44 c26 -44 26 -45 8 -59 -11 -8 -22 -15 -26
-15 -7 0 -158 257 -158 270 0 13 280 170 303 170 10 0 27 -4 37 -10z m-5522
-294 c-12 -23 -140 -249 -144 -254 -2 -3 -42 15 -52 23 -3 2 109 198 144 252
12 19 18 21 39 11 21 -9 23 -14 13 -32z m254 -231 c31 -83 62 -163 68 -180
l11 -30 57 102 57 101 27 -14 27 -14 -71 -123 c-80 -138 -89 -150 -109 -142
-8 3 -45 85 -83 181 l-68 177 -48 -84 c-70 -122 -70 -123 -97 -101 l-22 17 62
106 c88 149 96 161 115 157 11 -2 35 -52 74 -153z m4455 58 c13 -20 10 -23
-54 -58 -104 -58 -123 -73 -123 -101 0 -13 5 -24 11 -24 6 0 80 40 164 89
l154 89 16 -24 c8 -13 12 -24 8 -24 -5 0 -18 -9 -31 -18 l-24 -18 22 -37 c22
-36 23 -37 46 -22 31 20 39 19 52 -9 10 -22 4 -26 -145 -111 -164 -94 -189
-103 -221 -86 -25 13 -122 178 -122 207 0 12 8 31 18 43 19 25 192 131 206
127 5 -1 16 -11 23 -23z m-3913 -263 c142 -84 172 -113 161 -152 -16 -53 -98
-179 -126 -194 -27 -13 -33 -13 -75 5 -25 11 -94 50 -155 87 l-110 66 19 31
c10 18 44 78 76 135 32 56 62 102 66 102 5 0 70 -36 144 -80z"/>
<path d="M1803 12668 c4 -562 7 -1716 7 -2565 l0 -1543 2136 0 c1705 0 2135 3
2131 13 -3 6 -334 583 -735 1281 -669 1162 -729 1271 -717 1290 31 51 1455
2536 1455 2541 0 3 -964 5 -2142 5 l-2141 0 6 -1022z m2807 168 c0 -2 -219
-386 -487 -853 -267 -466 -486 -852 -486 -858 0 -5 219 -391 487 -857 267
-467 486 -850 486 -853 0 -3 -441 -5 -980 -5 l-980 0 0 1715 0 1715 980 0
c539 0 980 -2 980 -4z"/>
<path d="M5955 12417 c-401 -699 -730 -1281 -730 -1292 1 -11 329 -592 730
-1292 l730 -1272 1485 -1 1485 0 740 1281 c407 705 739 1285 738 1290 -2 5
-335 583 -740 1284 l-738 1275 -1485 0 -1485 -1 -730 -1272z m3687 -404 c262
-456 485 -842 494 -859 l18 -31 -495 -856 -494 -857 -993 3 -993 2 -476 825
c-261 454 -482 839 -490 856 l-16 32 473 823 c260 453 481 839 492 857 l20 32
991 0 992 0 477 -827z"/>
<path d="M7695 12007 c-357 -77 -651 -140 -652 -141 -5 -4 59 -1031 65 -1037
4 -3 55 -24 114 -45 60 -21 108 -42 108 -45 0 -3 -51 -17 -112 -31 l-113 -26
186 -1 185 -1 25 473 c27 528 27 528 54 -10 l18 -352 126 -44 126 -45 -80 -17
c-148 -32 -144 -33 65 -32 l205 2 20 365 c23 400 25 401 46 20 8 -152 15 -208
25 -216 8 -6 82 -35 164 -65 83 -30 146 -55 140 -57 -6 -2 -72 -14 -148 -27
l-137 -23 235 2 235 1 21 380 c12 209 22 376 23 370 1 -5 10 -133 20 -284 11
-150 23 -277 28 -281 4 -5 87 -38 183 -73 l174 -64 -119 -18 c-210 -31 -208
-33 36 -34 l236 -1 6 83 c26 371 79 1298 75 1302 -3 4 -214 30 -469 58 l-464
52 -650 -138z"/>
<path d="M9311 11365 c-1 -35 -27 -460 -37 -617 l-7 -108 101 0 c55 0 103 3
105 8 4 6 -146 711 -157 737 -3 5 -5 -3 -5 -20z"/>
<path d="M8340 10399 c-50 -100 -89 -184 -85 -187 4 -5 761 -90 918 -103 l38
-4 133 232 c73 128 131 235 128 238 -3 3 -103 5 -223 5 l-217 0 -60 -162 -61
-163 -3 160 -3 160 -237 3 -238 2 -90 -181z"/>
<path d="M10270 13685 c0 -3 326 -575 725 -1270 399 -696 728 -1271 731 -1279
4 -11 -886 -1577 -1397 -2458 l-68 -118 487 0 487 0 624 1085 c343 597 627
1085 630 1085 4 0 287 -488 631 -1085 l625 -1085 487 0 487 0 -73 128 c-40 70
-365 636 -721 1257 -356 622 -654 1141 -662 1155 -14 25 4 59 712 1295 400
699 730 1276 732 1283 4 9 -96 12 -479 12 l-484 0 -624 -1085 c-344 -596 -627
-1085 -630 -1085 -3 0 -287 488 -630 1085 l-625 1084 -482 1 c-266 0 -483 -2
-483 -5z"/>
<path d="M6777 7980 c-57 -15 -106 -43 -174 -102 -45 -38 -864 -956 -1151
-1290 -14 -17 -2 -18 240 -18 l254 0 404 455 c222 250 406 455 409 455 5 0
254 -485 279 -542 2 -5 -128 -8 -290 -8 l-293 0 -158 -176 c-88 -96 -157 -177
-155 -180 3 -2 365 -3 806 -2 l802 3 -328 639 c-213 416 -341 655 -367 684
-21 25 -59 54 -83 64 -52 23 -141 31 -195 18z"/>
<path d="M8840 7972 c-68 -20 -150 -96 -174 -162 -8 -25 -61 -304 -116 -620
-55 -316 -103 -585 -105 -598 l-5 -22 197 2 197 3 71 400 c41 236 74 398 80
395 5 -3 177 -183 382 -401 260 -277 382 -400 404 -408 86 -30 205 -3 268 60
71 72 76 89 187 707 57 317 106 589 110 605 l6 27 -201 0 c-121 0 -201 -4
-201 -10 0 -18 -131 -755 -138 -776 -6 -18 -45 20 -277 269 -468 501 -480 513
-532 531 -57 19 -82 19 -153 -2z"/>
<path d="M11285 7984 c-115 -28 -197 -105 -224 -209 -10 -40 -211 -1176 -211
-1195 0 -6 73 -10 195 -10 194 0 195 0 200 23 2 12 34 191 70 397 36 206 67
379 68 384 2 5 167 -166 367 -380 200 -214 378 -400 397 -413 41 -30 132 -39
199 -21 62 18 135 86 164 152 15 36 56 240 126 633 57 319 104 588 104 598 0
16 -16 17 -194 17 l-194 0 -6 -27 c-3 -16 -35 -197 -71 -403 -37 -206 -67
-376 -68 -377 -1 -1 -169 178 -374 396 -230 247 -385 405 -407 415 -37 17
-109 28 -141 20z"/>
<path d="M1978 7782 l-166 -177 322 -5 322 -5 -88 -505 c-48 -278 -88 -508
-88 -512 0 -5 97 -8 215 -8 214 0 215 0 220 23 7 28 175 990 175 1000 0 4 111
7 248 7 l247 0 95 98 c52 53 131 134 175 180 l80 82 -795 0 -795 -1 -167 -177z"/>
<path d="M3734 7783 l-169 -178 650 -5 650 -5 42 -23 c88 -47 98 -148 21 -219
-13 -12 -46 -32 -73 -45 l-50 -23 -650 -3 -650 -3 -58 -332 c-32 -183 -61
-342 -64 -355 l-5 -22 218 2 218 3 31 180 30 180 330 2 330 3 123 -185 122
-185 291 0 291 0 -33 43 c-117 150 -299 374 -312 386 -25 20 -21 28 16 35 104
19 260 132 326 235 87 135 103 319 39 445 -48 95 -166 177 -317 219 -73 20
-100 21 -627 25 l-550 3 -170 -178z"/>
<path d="M8095 7928 c-4 -18 -59 -330 -124 -693 l-117 -660 214 -3 c118 -1
217 -1 219 2 3 3 243 1367 243 1382 0 2 -97 4 -215 4 l-214 0 -6 -32z"/>
<path d="M10486 7933 c-3 -16 -58 -318 -121 -673 -63 -355 -117 -655 -120
-667 l-5 -23 220 0 c121 0 220 2 220 5 0 2 54 310 120 683 66 374 120 685 120
691 0 8 -63 11 -214 11 l-214 0 -6 -27z"/>
<path d="M13497 7944 c-332 -60 -615 -270 -702 -520 -65 -187 -57 -344 25
-510 70 -143 219 -257 410 -315 73 -23 87 -23 637 -27 l562 -3 6 23 c3 13 37
203 75 423 39 220 73 406 75 413 3 9 -90 12 -444 12 l-448 0 -159 -155 -159
-154 361 -1 361 0 -16 -97 -17 -98 -319 0 c-308 0 -322 1 -376 23 -76 31 -132
80 -159 144 -32 75 -26 191 15 266 50 92 131 155 265 205 52 20 79 21 470 25
l415 3 131 137 c71 75 147 156 168 180 l38 42 -568 -1 c-444 -1 -586 -4 -647
-15z"/>
<path d="M5900 5958 c-46 -13 -78 -43 -91 -87 -6 -22 -9 -108 -7 -218 l3 -182
28 -29 c45 -46 88 -52 396 -52 l281 0 0 60 0 60 -283 0 c-207 0 -286 3 -295
12 -8 8 -12 58 -12 160 0 135 2 148 19 158 12 6 124 10 295 10 l276 0 0 60 0
60 -287 -1 c-159 0 -304 -5 -323 -11z"/>
<path d="M7270 5680 l0 -290 260 0 260 0 0 60 0 60 -200 0 -200 0 0 230 0 230
-60 0 -60 0 0 -290z"/>
<path d="M8520 5738 c0 -262 5 -285 70 -323 33 -19 52 -20 285 -20 278 0 291
3 332 64 22 33 23 41 23 272 l0 239 -55 0 -55 0 0 -214 c0 -182 -2 -217 -16
-230 -13 -14 -48 -16 -228 -16 -151 0 -215 3 -224 12 -9 9 -12 74 -12 230 l0
218 -60 0 -60 0 0 -232z"/>
<path d="M10010 5680 l0 -291 313 3 c334 3 350 5 383 55 19 29 29 117 20 167
-4 20 -17 45 -28 56 l-22 20 22 16 c20 13 22 24 22 94 0 92 -10 120 -53 146
-29 17 -57 19 -344 22 l-313 3 0 -291z m588 158 c20 -20 15 -76 -7 -88 -12 -6
-107 -10 -240 -10 l-221 0 0 55 0 55 228 0 c164 0 231 -3 240 -12z m0 -220 c7
-7 12 -28 12 -48 0 -20 -5 -41 -12 -48 -9 -9 -76 -12 -240 -12 l-228 0 0 60 0
60 228 0 c164 0 231 -3 240 -12z"/>
<path d="M5434 4762 c-110 -38 -207 -142 -239 -255 -13 -46 -16 -94 -13 -245
3 -168 5 -192 25 -235 30 -66 84 -129 146 -171 105 -71 -128 -66 2912 -66
2475 0 2747 2 2796 16 105 31 192 104 246 206 l28 53 0 220 c0 218 0 221 -27
277 -34 74 -112 152 -186 186 l-57 27 -2790 2 c-2653 2 -2793 2 -2841 -15z
m676 -337 l0 -34 -157 -3 c-150 -3 -158 -4 -158 -23 0 -19 8 -20 140 -25 184
-7 195 -13 195 -115 0 -37 -6 -60 -19 -76 -19 -23 -24 -24 -200 -27 l-181 -3
0 30 0 31 154 0 c164 0 186 6 186 50 0 43 -24 50 -163 50 -164 0 -177 6 -177
83 0 29 4 57 8 64 16 25 61 32 215 32 l157 1 0 -35z m260 -135 l0 -170 -30 0
-30 0 0 170 0 170 30 0 30 0 0 -170z m385 46 l150 -123 3 124 3 123 34 0 35 0
0 -154 c0 -85 -3 -161 -6 -170 -13 -34 -52 -13 -197 104 -81 66 -149 120 -152
120 -3 0 -5 -54 -5 -120 l0 -120 -30 0 -30 0 0 163 c0 90 3 167 7 170 17 18
49 -2 188 -117z m815 89 l0 -35 -172 -2 -173 -3 -3 -88 c-2 -57 1 -94 9 -103
9 -11 47 -14 175 -14 l164 0 0 -30 0 -30 -172 0 c-95 0 -183 3 -196 6 -38 11
-52 53 -52 161 0 164 12 172 258 172 l162 1 0 -35z m590 0 l0 -35 -181 0 -180
0 3 -22 c3 -22 6 -23 146 -26 l142 -3 0 -24 0 -24 -142 -3 -143 -3 0 -50 0
-50 178 -3 177 -2 0 -30 0 -30 -210 0 -210 0 0 170 0 170 210 0 210 0 0 -35z
m809 24 c38 -13 51 -35 51 -84 0 -25 -8 -43 -25 -60 -23 -24 -29 -25 -154 -25
-71 0 -136 -3 -145 -6 -11 -4 -16 -19 -16 -50 l0 -44 170 0 170 0 0 -30 0 -30
-200 0 -200 0 0 94 c0 75 3 96 16 107 12 10 60 15 163 19 142 5 146 6 149 28
3 22 3 22 -147 22 l-151 0 0 35 0 35 144 0 c78 0 157 -5 175 -11z m586 -4 c46
-19 55 -46 55 -161 0 -115 -14 -150 -63 -159 -19 -4 -98 -5 -176 -3 -183 4
-181 2 -181 160 0 60 5 118 11 129 19 37 66 48 197 49 85 0 133 -4 157 -15z
m584 5 c54 -15 60 -32 61 -163 0 -112 -1 -119 -25 -142 -23 -24 -28 -25 -174
-25 -91 0 -160 4 -175 11 -34 16 -46 56 -46 156 0 106 16 149 62 162 44 12
254 14 297 1z m291 -75 l0 -84 33 -6 c17 -3 75 -5 127 -3 l95 3 3 48 c3 45 5
47 33 47 28 0 29 -1 29 -50 0 -47 2 -50 25 -50 21 0 25 -5 25 -30 0 -25 -4
-30 -25 -30 -23 0 -25 -3 -25 -50 0 -49 -1 -50 -30 -50 -29 0 -30 1 -30 50 l0
50 -107 0 c-192 0 -215 16 -221 150 l-4 90 36 0 36 0 0 -85z"/>
<path d="M9267 4383 c-4 -3 -7 -48 -7 -99 0 -75 3 -93 16 -98 9 -3 67 -6 129
-6 141 0 145 3 145 101 0 110 2 109 -149 109 -70 0 -131 -3 -134 -7z"/>
<path d="M9857 4383 c-12 -12 -8 -178 5 -191 8 -8 51 -12 129 -12 146 0 149 2
149 105 0 111 8 105 -144 105 -73 0 -136 -3 -139 -7z"/>
<path d="M11655 16713 c-11 -21 -21 -41 -23 -44 -4 -9 203 -129 222 -129 18 0
46 37 46 62 0 11 -39 39 -111 82 -61 36 -112 66 -113 66 -1 0 -11 -17 -21 -37z"/>
<path d="M12329 16324 c-22 -36 -22 -37 -3 -51 43 -32 192 -113 208 -113 19 0
41 42 33 63 -3 7 -38 33 -79 57 -40 23 -87 51 -105 62 l-31 18 -23 -36z"/>
<path d="M2925 15603 c-137 -76 -175 -99 -175 -108 0 -5 11 -23 24 -40 l23
-29 104 60 c111 64 125 82 92 122 l-18 22 -50 -27z"/>
<path d="M2510 3838 c-11 -18 -20 -36 -20 -39 0 -6 182 -114 213 -128 15 -6
47 32 47 55 0 18 -21 34 -104 83 -58 34 -107 61 -110 61 -4 0 -15 -15 -26 -32z"/>
<path d="M2993 3578 c-27 -36 -74 -130 -71 -144 4 -22 186 -126 212 -122 15 2
33 25 59 76 21 40 36 76 32 81 -6 11 -201 121 -214 121 -5 0 -13 -6 -18 -12z"/>
<path d="M13349 3496 c-66 -34 -167 -97 -179 -110 -10 -13 -6 -27 30 -87 23
-38 47 -72 55 -75 12 -5 249 129 260 146 3 5 -7 8 -22 7 -24 -2 -32 5 -59 57
-37 69 -51 80 -85 62z"/>
<path d="M11152 2226 c-52 -30 -98 -58 -104 -64 -10 -10 12 -65 32 -77 13 -8
210 103 217 123 10 24 -11 67 -32 69 -11 2 -62 -21 -113 -51z"/>
<path d="M10455 1699 c-55 -32 -101 -62 -103 -67 -1 -5 9 -21 22 -35 29 -31
30 -31 143 36 l83 48 -15 27 c-8 15 -18 32 -22 38 -6 8 -39 -7 -108 -47z"/>
<path d="M6396 1528 c-47 -78 -48 -82 -30 -95 41 -30 192 -113 207 -113 23 0
102 139 90 159 -8 14 -199 131 -213 131 -3 0 -27 -37 -54 -82z"/>
</g>
</svg>
