<svg id="Capa_1" data-name="Capa 1" xmlns="http://www.w3.org/2000/svg" viewBox="0 0 640 480"><defs><style>.cls-3{fill:#ff00b0;}.cls-2{fill:none;stroke:#000;stroke-miterlimit:10;stroke-width:8px;}</style></defs><path class="cls-3" d="M159.89,325.51A4.11,4.11,0,0,1,162,327a4.58,4.58,0,0,1,.82,2.8,9.33,9.33,0,0,1-.44,2.82,5.65,5.65,0,0,1-1.64,2.48,9,9,0,0,1-3.31,1.79,18.24,18.24,0,0,1-5.46.68H131.37l2.52-14.24h20.72a3.19,3.19,0,0,0,1.61-.41,1.53,1.53,0,0,0,.7-1.45,1,1,0,0,0-.54-1,2.8,2.8,0,0,0-1.25-.26H134.41l6-6.09h15.51a11,11,0,0,1,6,1.38,4.57,4.57,0,0,1,2.15,4.11,6.23,6.23,0,0,1-.37,2.24,6.08,6.08,0,0,1-1,1.72,5.55,5.55,0,0,1-1.33,1.2A6,6,0,0,1,159.89,325.51Zm-19.63,2.8-.56,3.22H153a3.16,3.16,0,0,0,2-.49,1.66,1.66,0,0,0,.63-1.4c0-.88-.67-1.33-2-1.33Z"/><path class="cls-3" d="M172.91,337.55l5.46-6h8c.75,0,1.4,0,2,.07-.25-.42-.55-1-.87-1.59s-.63-1.24-.91-1.8l-3.12-6.2-13.72,15.54h-8.57L180,316.38a10,10,0,0,1,2.17-1.82,5.37,5.37,0,0,1,3-.81,4.13,4.13,0,0,1,2.61.75,6,6,0,0,1,1.56,1.88l10.88,21.17Z"/><path class="cls-3" d="M216.17,322.92h15l-2.59,14.63H212.5a14.92,14.92,0,0,1-5-.79,11.45,11.45,0,0,1-3.85-2.17,9.76,9.76,0,0,1-2.47-3.27,9.65,9.65,0,0,1-.87-4.09,11,11,0,0,1,1.29-5.29,13.26,13.26,0,0,1,3.5-4.15,16.63,16.63,0,0,1,5.18-2.69,20.57,20.57,0,0,1,6.34-1h16.76l-5.77,6.09H215.54a9.43,9.43,0,0,0-3.06.49,8.14,8.14,0,0,0-2.54,1.36,6.86,6.86,0,0,0-1.73,2.07,5.32,5.32,0,0,0-.65,2.59,4.26,4.26,0,0,0,1.63,3.5,6.84,6.84,0,0,0,4.36,1.29h8.89l.59-3.39H210.89Z"/><path class="cls-3" d="M256,337.55l5.46-6h8.05c.74,0,1.4,0,2,.07-.26-.42-.55-1-.88-1.59l-.91-1.8-3.11-6.2-13.72,15.54h-8.58l18.76-21.17a10.22,10.22,0,0,1,2.17-1.82,5.38,5.38,0,0,1,3-.81,4.12,4.12,0,0,1,2.6.75,5.7,5.7,0,0,1,1.56,1.88l10.89,21.17Z"/><path class="cls-3" d="M310,323.48a10.24,10.24,0,0,1,5.79,1.35,4.49,4.49,0,0,1,2,4,9.51,9.51,0,0,1-.63,3.5,6.86,6.86,0,0,1-2,2.78,9.53,9.53,0,0,1-3.57,1.82,18.58,18.58,0,0,1-5.3.65H284.49l5.71-6h17.74a3.65,3.65,0,0,0,2.14-.49,1.74,1.74,0,0,0,.66-1.5c0-.94-.73-1.4-2.2-1.4H295.76c-2.66,0-4.61-.52-5.84-1.54a5.05,5.05,0,0,1-1.86-4.1,8.6,8.6,0,0,1,.63-3.31,6.84,6.84,0,0,1,2-2.66,10.05,10.05,0,0,1,3.56-1.76,19,19,0,0,1,5.25-.63h20.33l-5.74,6.09H297.86a4,4,0,0,0-2.13.43,1.65,1.65,0,0,0-.67,1.49c0,.89.75,1.33,2.24,1.33Z"/><path class="cls-3" d="M343.75,323.48a10.28,10.28,0,0,1,5.79,1.35,4.49,4.49,0,0,1,2,4,9.51,9.51,0,0,1-.63,3.5,6.79,6.79,0,0,1-2,2.78,9.53,9.53,0,0,1-3.57,1.82,18.49,18.49,0,0,1-5.3.65H318.2l5.7-6h17.75a3.6,3.6,0,0,0,2.13-.49,1.75,1.75,0,0,0,.67-1.5c0-.94-.74-1.4-2.21-1.4H329.47c-2.66,0-4.61-.52-5.85-1.54a5.08,5.08,0,0,1-1.85-4.1,8.6,8.6,0,0,1,.63-3.31,6.84,6.84,0,0,1,2-2.66,9.92,9.92,0,0,1,3.55-1.76,19.06,19.06,0,0,1,5.25-.63h20.34l-5.74,6.09H331.57a4.06,4.06,0,0,0-2.14.43,1.66,1.66,0,0,0-.66,1.49c0,.89.74,1.33,2.24,1.33Z"/><path class="cls-3" d="M361.42,337.55l5.46-6h8.05c.75,0,1.4,0,2,.07-.25-.42-.55-1-.87-1.59s-.63-1.24-.91-1.8L372,322l-13.72,15.54H349.7l18.76-21.17a10,10,0,0,1,2.17-1.82,5.37,5.37,0,0,1,3-.81,4.13,4.13,0,0,1,2.61.75,6,6,0,0,1,1.56,1.88l10.88,21.17Z"/><path class="cls-3" d="M420.68,327.33q-1.89,10.6-16.45,10.61-7.53,0-11-2.1a6.88,6.88,0,0,1-3.48-6.3,12.39,12.39,0,0,1,.21-2.21l2.34-13.19h7.25l-2.38,13.19a9.35,9.35,0,0,0-.11,1.3,2.89,2.89,0,0,0,.39,1.54,2.59,2.59,0,0,0,1.33,1,9.28,9.28,0,0,0,2.52.56,36.27,36.27,0,0,0,4,.18,21,21,0,0,0,3.55-.25,7,7,0,0,0,2.4-.8,4,4,0,0,0,1.45-1.44,6.18,6.18,0,0,0,.72-2.1l2.34-13.19H423Z"/><path class="cls-3" d="M449.45,331.53l-5.78,6H423l4.16-23.41h7.21l-3.08,17.39Z"/><path class="cls-3" d="M479.62,314.14l-5.81,6.09h-8.33l-3.08,17.32h-7.25l3.05-17.32h-11l5.81-6.09Z"/><path class="cls-3" d="M501.84,323.48a10.24,10.24,0,0,1,5.79,1.35,4.49,4.49,0,0,1,2,4,9.51,9.51,0,0,1-.63,3.5,6.86,6.86,0,0,1-2,2.78,9.53,9.53,0,0,1-3.57,1.82,18.58,18.58,0,0,1-5.3.65H476.29l5.71-6h17.74a3.65,3.65,0,0,0,2.14-.49,1.74,1.74,0,0,0,.66-1.5c0-.94-.73-1.4-2.2-1.4H487.56c-2.66,0-4.61-.52-5.84-1.54a5.05,5.05,0,0,1-1.86-4.1,8.6,8.6,0,0,1,.63-3.31,6.84,6.84,0,0,1,2-2.66,10.05,10.05,0,0,1,3.56-1.76,19,19,0,0,1,5.25-.63h20.33l-5.74,6.09H489.66a4,4,0,0,0-2.13.43,1.65,1.65,0,0,0-.67,1.49c0,.89.75,1.33,2.24,1.33Z"/><polygon class="cls-3" points="365.58 142.06 277.43 142.06 233.36 218.4 277.43 294.73 365.58 294.73 409.65 218.4 365.58 142.06"/><path d="M332.32,192.9a1.59,1.59,0,0,0-.12-.67l-.86-2a1.53,1.53,0,0,0-1.6-.92l-.59-1.4a1.55,1.55,0,0,0,.45-1.8l-.86-2a1.53,1.53,0,0,0-1.6-.92l-.58-1.36A1.56,1.56,0,0,0,327,180l-.86-2a1.53,1.53,0,0,0-1.6-.93l-.59-1.4a1.52,1.52,0,0,0,.45-1.79l-.62-1.46a3,3,0,0,0,1-2.21,3.06,3.06,0,1,0-5.2,2.16l-.66,1.39a1.52,1.52,0,0,0-.06,1.18,1.47,1.47,0,0,0,.44.63l-.65,1.38a1.45,1.45,0,0,0-.77.07,1.47,1.47,0,0,0-.87.79l-.94,2a1.54,1.54,0,0,0,.38,1.82l-.64,1.33a1.56,1.56,0,0,0-1.64.86l-.94,2a1.55,1.55,0,0,0,.38,1.81l-.65,1.37a1.52,1.52,0,0,0-.76.07,1.56,1.56,0,0,0-.88.79l-.94,2a1.53,1.53,0,0,0,0,1.22c-2.74.88-4.13,2.19-4.13,3.91v64.93c0,1.79,1.38,3.71,3.7,5.15,2,1.22,5.58,2.67,11.62,2.67s9.65-1.45,11.61-2.67c2.32-1.44,3.7-3.36,3.7-5.15V196.92C336.82,195.12,335.3,193.77,332.32,192.9Zm3.76,69.34a3,3,0,0,1-.31,1.05,5.54,5.54,0,0,1-1,1.38A8.89,8.89,0,0,1,333,266a14.09,14.09,0,0,1-2.37,1.14,19.58,19.58,0,0,1-2.81.82,25.53,25.53,0,0,1-3.09.46,31.15,31.15,0,0,1-3.2.15c-1.09,0-2.15-.05-3.21-.15a25.07,25.07,0,0,1-3.08-.47,20.68,20.68,0,0,1-2.82-.81A14.09,14.09,0,0,1,310,266a8.88,8.88,0,0,1-1.76-1.37,5.6,5.6,0,0,1-1-1.38,3,3,0,0,1-.31-1.05,1,1,0,0,1,0-.29v-.1l0,.1v.12l0,.15a3.44,3.44,0,0,0,.46.94,5.81,5.81,0,0,0,1.13,1.17,10.6,10.6,0,0,0,1.79,1.1,16,16,0,0,0,2.32.89,23.33,23.33,0,0,0,2.73.61c1,.16,2,.28,3,.35s2.07.11,3.1.11,2.08,0,3.11-.11,2-.19,3-.35a21.45,21.45,0,0,0,2.73-.62,17.3,17.3,0,0,0,2.32-.88,11.28,11.28,0,0,0,1.79-1.1,5.81,5.81,0,0,0,1.13-1.17,3.44,3.44,0,0,0,.46-.94l0-.15V262l0-.1v.1A1,1,0,0,1,336.08,262.24ZM313.7,189.31l.65-1.37.24,0a1.55,1.55,0,0,0,1.4-.88l.94-2a1.51,1.51,0,0,0-.38-1.81l.63-1.34.25,0a1.52,1.52,0,0,0,1.39-.88l.94-2a1.54,1.54,0,0,0-.37-1.81l.64-1.37.25,0a1.55,1.55,0,0,0,.52-.1,1.44,1.44,0,0,0,.48-.28,1.54,1.54,0,0,0,.65.23l.2,1.3a1.48,1.48,0,0,0-.63.48,1.45,1.45,0,0,0-.27,1.09l.27,1.87a1.47,1.47,0,0,0,.58,1,1.43,1.43,0,0,0,.74.28L323,183a1.45,1.45,0,0,0-.89,1.57l.27,1.87a1.46,1.46,0,0,0,1.31,1.24l.19,1.31a1.45,1.45,0,0,0-.89,1.57l.16,1.13c-.63,0-1.19,0-1.64,0a54.14,54.14,0,0,0-8,.56l.55-1.15A1.54,1.54,0,0,0,313.7,189.31Zm11.89-7.18h.19l.57,1.36a1.54,1.54,0,0,0-.45,1.79l.86,2a1.5,1.5,0,0,0,.84.82,1.47,1.47,0,0,0,.58.12l.18,0,.59,1.4a1.54,1.54,0,0,0-.45,1.79l.33.77c-.87-.13-1.74-.22-2.58-.29l-.25-1.74a1.49,1.49,0,0,0-.58-1,1.43,1.43,0,0,0-.74-.28l-.19-1.3a1.44,1.44,0,0,0,.9-1.57l-.28-1.87a1.46,1.46,0,0,0-.57-1,1.52,1.52,0,0,0-.74-.28l-.18-1.26a1.51,1.51,0,0,0,.57-.43A1.55,1.55,0,0,0,325.59,182.13Zm9.09,12.7-.37-.14-.49-.17-.59-.18-.66-.18c-.22-.07-.46-.12-.7-.18s-.49-.12-.74-.17c-.49-.11-1-.21-1.46-.29s-.9-.17-1.28-.22l-.91-.13-.34,0h.35c.22,0,.54,0,.92,0s.83.07,1.3.13,1,.16,1.47.27a14.58,14.58,0,0,1,1.45.38l.66.22.57.22c.36.15.65.29.84.39l.31.17Zm-8.08-2.07a.53.53,0,0,1,0,.16V193l0-.05a.4.4,0,0,0-.07-.12.76.76,0,0,0-.27-.2,2,2,0,0,0,0-.26A.76.76,0,0,1,326.6,192.76Zm-1.2.93h0l-.15,0a1.66,1.66,0,0,1-.56,0,1.3,1.3,0,0,1-.35-.18.69.69,0,0,1-.29-.4c-.35,0-1.22-.08-2.4-.1h-1.25L319,193c-.49,0-1,0-1.5.07s-1,.08-1.53.12-1,.12-1.53.18-1,.15-1.48.24-.93.18-1.36.29-.84.21-1.22.32l-1,.33-.22.07-.2.08-.34.15-.66.27.65-.29.34-.16.2-.09.21-.07,1-.37,1.21-.35c.43-.12.89-.22,1.36-.33s1-.19,1.48-.29,1-.16,1.53-.22,1-.13,1.54-.17l1.5-.12,1.4-.07,1.26,0c1.24,0,2.15,0,2.47,0a.36.36,0,0,1,.07-.1,1,1,0,0,1,.41-.32,1.84,1.84,0,0,1,.91-.15v.09a.38.38,0,0,1,0,.29s0,0,0,0a1.77,1.77,0,0,0-.65.15.75.75,0,0,0-.26.18.37.37,0,0,0-.07.1V193a.41.41,0,0,0,.11.23.88.88,0,0,0,.24.19,2.37,2.37,0,0,0,.46.2Zm-1.61-3.21a.65.65,0,0,1,.12-.49.47.47,0,0,1,.1-.1l.07.45a.4.4,0,0,0,.4.34h.06a.41.41,0,0,0,.34-.46l-.07-.45.13.07a.67.67,0,0,1,.26.43l.22,1.56-1.44-.07Zm-.66-6.58.07.45a.41.41,0,0,0,.4.35h0a.41.41,0,0,0,.35-.46l-.07-.45.13.07a.64.64,0,0,1,.25.44l.28,1.87a.72.72,0,0,1-.12.49l-.1.1-.06-.42a.41.41,0,0,0-.46-.34.41.41,0,0,0-.35.46l.07.42a.69.69,0,0,1-.39-.51l-.27-1.87A.64.64,0,0,1,323,184,.52.52,0,0,1,323.13,183.9Zm-.88-6,.07.45a.4.4,0,0,0,.4.34h.06a.41.41,0,0,0,.34-.46l-.07-.45a.64.64,0,0,1,.25.18,1.55,1.55,0,0,0,0,1.16l.38.88,0,.15a.67.67,0,0,1-.22.6l-.07-.45A.4.4,0,0,0,323,180a.41.41,0,0,0-.34.46l.07.46-.13-.08a.62.62,0,0,1-.25-.43l-.28-1.87a.66.66,0,0,1,.12-.49Zm.57-3.79a.43.43,0,0,0-.19.54l0,.06-.05.05-.06-.42a.4.4,0,0,0-.4-.34l.45-1,.06,0Zm.11,2.81-.15-1,.21,0h.19l.56,1.34A1.42,1.42,0,0,0,322.93,177Zm-2.3-2.31s0,0,0,0a1.4,1.4,0,0,0,.09.29.54.54,0,0,1-.22.13l-.08,0ZM307,196.58a1.69,1.69,0,0,1,.74-.66,6.43,6.43,0,0,1,1.42-.57,15.26,15.26,0,0,1,1.91-.47c.7-.13,1.47-.26,2.29-.35s1.67-.19,2.57-.26,1.81-.12,2.74-.15,1.89-.05,2.84-.05c1.91,0,3.81.07,5.6.2.89.07,1.75.16,2.56.26s1.59.22,2.29.35a11.81,11.81,0,0,1,3.33,1,1.69,1.69,0,0,1,.74.66.63.63,0,0,1,.07.34h0a.68.68,0,0,0-.13-.3,1.68,1.68,0,0,0-.78-.48,14.09,14.09,0,0,0-3.32-.56c-.71-.06-1.47-.1-2.27-.15l-2.55-.08-2.72,0-2.81,0-2.82,0-2.72,0c-.88,0-1.74.05-2.54.09s-1.57.08-2.28.14a14.09,14.09,0,0,0-3.32.56,1.68,1.68,0,0,0-.78.48.68.68,0,0,0-.13.3h0A.63.63,0,0,1,307,196.58Zm28.85,32.81c0,4,0,7.91,0,11.62s-.05,7.17-.07,10.14-.07,5.44-.09,7.17,0,2.72,0,2.72,0-1-.05-2.72-.07-4.21-.09-7.17-.06-6.43-.07-10.14,0-7.67,0-11.62,0-7.92,0-11.63.05-7.17.07-10.13.07-5.44.09-7.17.05-2.72.05-2.72,0,1,0,2.72.06,4.2.09,7.17.06,6.43.07,10.13S335.83,225.43,335.84,229.39Zm-22.32,27.73c.51.17,1.07.35,1.66.51s1.23.32,1.89.47,1.35.27,2.05.38,1.42.2,2.14.27,1.44.11,2.15.12c.36,0,.71,0,1.06,0s.7,0,1,0c.68,0,1.34-.08,2-.14l.91-.11.84-.13c.54-.09,1-.18,1.47-.28l1.13-.26,1-.27-1,.35c-.3.11-.68.22-1.1.36s-.92.26-1.46.4l-.84.2c-.29.07-.59.12-.9.18-.63.12-1.29.23-2,.31-.34,0-.69.08-1.05.12l-1.08.08c-.73,0-1.48.06-2.22.05s-1.49,0-2.22-.09-1.46-.12-2.15-.22-1.36-.2-2-.32-1.22-.25-1.77-.38-.82-.21-1.18-.31c.07.88.13,1.7.19,2.44l.06,0c.42.12.9.25,1.43.37s1.1.24,1.71.37c.3.07.62.11.94.17s.65.11,1,.15c.67.08,1.37.19,2.08.24l1.08.09,1.08,0c.73,0,1.46,0,2.18,0s1.42-.06,2.1-.1,1.34-.13,2-.2c.31,0,.62-.07.91-.12l.84-.16c.54-.11,1-.18,1.48-.29l1.12-.29,1-.25-.95.33-1.1.39c-.43.14-.93.26-1.46.41l-.84.23-.9.19c-.63.13-1.28.29-2,.38s-1.4.23-2.13.28-1.47.14-2.22.16l-1.12.05h-1.11c-.73,0-1.45,0-2.16-.07-.35,0-.69-.05-1-.07s-.67-.05-1-.09c-.64-.08-1.24-.15-1.8-.24l-1-.17c.15,1.74.24,2.76.24,2.76-3.46-1.15-5.26-2.93-5.26-5.3V198.33c0-2,1.57-2,5.26-2,0,0-.2,2-.46,5.48.41,0,.86-.05,1.34-.06s1.14,0,1.76-.05,1.29,0,2,0,1.39,0,2.1,0l1.08,0,1.08.06c.73,0,1.45.11,2.16.17s1.41.14,2.08.21,1.33.18,1.94.26l.9.13.83.15c.53.09,1,.17,1.45.26l1.12.23,1,.21-1-.12-1.12-.14-1.47-.14-.84-.07-.9-.06c-.61,0-1.26-.08-1.93-.09s-1.37-.05-2.08,0-1.42,0-2.14,0l-1.07,0-1.06.05c-.71,0-1.4.08-2.06.12l-1.93.17-1.71.2c-.6.07-1.14.15-1.61.22-.06.92-.13,1.9-.19,3h.11l1.5-.19c.55-.06,1.15-.11,1.79-.16s1.3-.1,2-.13,1.4-.07,2.13-.07h2.19c.74,0,1.47.05,2.2.08s1.43.1,2.11.15,1.35.14,2,.21l.91.11.85.13,1.48.24,1.13.24,1,.2-1-.12-1.15-.14-1.48-.11-.85-.07-.91,0c-.63,0-1.28-.06-2,0s-1.38,0-2.09,0-1.44,0-2.16.1l-1.09.08-1.07.1c-.71.06-1.4.16-2.07.24s-1.32.19-1.93.29-1.19.2-1.72.31l-1.44.29-.54.12c-.38,6.55-.74,15.27-.74,24.88,0,8.12.48,16.89.93,23.22C312.25,256.67,312.84,256.9,313.52,257.12Zm16.66-67a.69.69,0,0,1,.38.37l.85,2a.3.3,0,0,1,0,.1q-.52-.13-1.08-.24l-.56-.1-.52-1.25a.67.67,0,0,1,0-.6l.19.45a.43.43,0,0,0,.39.26.51.51,0,0,0,.17,0,.43.43,0,0,0,.22-.56l-.19-.45ZM328,184.4l.85,2a.67.67,0,0,1,0,.6l-.18-.42a.41.41,0,0,0-.55-.22.42.42,0,0,0-.23.55l.18.42-.08,0a.69.69,0,0,1-.38-.37l-.86-2a.7.7,0,0,1,0-.6l.19.45a.42.42,0,0,0,.39.26.51.51,0,0,0,.17,0,.43.43,0,0,0,.22-.56l-.19-.45A.69.69,0,0,1,328,184.4Zm-3-6.47a.69.69,0,0,1,.38.37l.86,2a.7.7,0,0,1,0,.6l-.19-.45a.41.41,0,0,0-.55-.22.42.42,0,0,0-.23.55l.19.45a.69.69,0,0,1-.46-.39l-.5-1.19-.15-1,0,.05a.42.42,0,0,0,.39.26.51.51,0,0,0,.17,0,.42.42,0,0,0,.22-.56l-.19-.45Zm-1.41-3.18a1.68,1.68,0,0,0,.07-.5.73.73,0,0,1,0,.46l0,.07Zm-1.88-6.16a1.59,1.59,0,0,1,1.26,2.54,1.19,1.19,0,0,0-.25-.13,1.49,1.49,0,0,0-1-.05,1.55,1.55,0,0,0-1.3.15,1.56,1.56,0,0,1-.3-.92A1.59,1.59,0,0,1,321.7,168.59Zm-2.07,6a.69.69,0,0,1,0-.53l.58-1.24.15.07.18,1.28a.41.41,0,0,0-.14-.12.43.43,0,0,0-.57.2l-.19.41A.25.25,0,0,1,319.63,174.63Zm-2.82,5.5.94-2a.62.62,0,0,1,.39-.35l.08,0-.21.44a.42.42,0,0,0,.2.56.39.39,0,0,0,.18,0,.44.44,0,0,0,.39-.24l.21-.44a.7.7,0,0,1,0,.6l-.94,2a.69.69,0,0,1-.47.37l.2-.44a.42.42,0,0,0-.2-.56.43.43,0,0,0-.57.2l-.2.44A.67.67,0,0,1,316.81,180.13ZM314,186.65a.65.65,0,0,1,0-.53l.94-2a.69.69,0,0,1,.47-.38l-.21.44a.42.42,0,0,0,.21.57.39.39,0,0,0,.18,0,.42.42,0,0,0,.38-.24l.21-.44a.43.43,0,0,1,0,.07.7.7,0,0,1,0,.53l-.94,2a.69.69,0,0,1-.47.38l.19-.41a.43.43,0,1,0-.77-.36l-.19.41Zm-2.83,5.5.94-2a.69.69,0,0,1,.39-.36l.08,0-.21.44a.43.43,0,0,0,.21.57.39.39,0,0,0,.18,0,.41.41,0,0,0,.38-.25l.21-.44a.72.72,0,0,1,0,.61l-.8,1.7c-.49.09-.94.2-1.37.31A.71.71,0,0,1,311.12,192.15Z"/><polygon class="cls-2" points="365.58 142.06 277.43 142.06 233.36 218.4 277.43 294.73 365.58 294.73 409.65 218.4 365.58 142.06"/></svg>