<svg id="Capa_1" data-name="Capa 1" xmlns="http://www.w3.org/2000/svg" viewBox="0 0 640 480"><defs><style>.cls-1{fill:#ffed00;}.cls-2{fill:none;stroke:#000;stroke-miterlimit:10;stroke-width:8px;}</style></defs><path class="cls-1" d="M177.22,325.51A4.08,4.08,0,0,1,179.3,327a4.52,4.52,0,0,1,.82,2.8,9.32,9.32,0,0,1-.43,2.82,5.68,5.68,0,0,1-1.65,2.48,8.92,8.92,0,0,1-3.31,1.79,18.24,18.24,0,0,1-5.46.68H148.69l2.52-14.24h20.72a3.13,3.13,0,0,0,1.61-.41,1.51,1.51,0,0,0,.7-1.45,1,1,0,0,0-.54-1,2.75,2.75,0,0,0-1.24-.26H151.74l6-6.09h15.5a11,11,0,0,1,6,1.38,4.55,4.55,0,0,1,2.15,4.11,6.46,6.46,0,0,1-.36,2.24,6.1,6.1,0,0,1-1,1.72,5.37,5.37,0,0,1-1.33,1.2A6.06,6.06,0,0,1,177.22,325.51Zm-19.64,2.8-.56,3.22h13.34a3.18,3.18,0,0,0,2-.49,1.66,1.66,0,0,0,.63-1.4c0-.88-.68-1.33-2-1.33Z"/><path class="cls-1" d="M203,313.75q7.63,0,11.43,2.4t3.8,7.51c0,4.8-1.61,8.39-4.83,10.74s-8.11,3.54-14.67,3.54q-7.62,0-11.42-2.42c-2.54-1.61-3.8-4.12-3.8-7.52q0-7.22,4.83-10.73T203,313.75Zm-3.22,18.1a41.73,41.73,0,0,0,5.73-.32,7.92,7.92,0,0,0,3.39-1.15,4.08,4.08,0,0,0,1.63-2.3,13.48,13.48,0,0,0,.42-3.69,4.57,4.57,0,0,0-.51-2.29,3.39,3.39,0,0,0-1.61-1.4A8.7,8.7,0,0,0,206,320a39.9,39.9,0,0,0-4.09-.18,41.31,41.31,0,0,0-5.71.32,7.88,7.88,0,0,0-3.37,1.15,4.09,4.09,0,0,0-1.63,2.29,13.6,13.6,0,0,0-.42,3.7,4.49,4.49,0,0,0,.52,2.31,3.62,3.62,0,0,0,1.61,1.38,8.57,8.57,0,0,0,2.79.68A39.35,39.35,0,0,0,199.79,331.85Z"/><path class="cls-1" d="M255.44,314.14l-8.57,6.75-2.4,1.87c-.64.51-1.19.93-1.64,1.26l-1.14.84c-.31.23-.57.42-.81.58.17.14.41.37.72.68s.68.7,1.09,1.16.86,1,1.36,1.5l1.56,1.74,6.26,7H241.65L235,329.82l-9.59,7.73h-9l8.86-7,2.61-2c.68-.55,1.26-1,1.73-1.35s.84-.63,1.14-.84.56-.39.82-.56q-.29-.24-.6-.54c-.21-.2-.48-.48-.82-.84L228.93,323c-.5-.54-1.14-1.25-1.91-2.11l-6-6.72h10l6.16,7.28,8.82-7.28Z"/><path class="cls-1" d="M301.12,314.14l-5.81,6.09H287l-3.08,17.32h-7.25l3.05-17.32h-11l5.81-6.09Z"/><path class="cls-1" d="M330,337.55h-9.7l-4.13-6.19H305.07L304,337.55h-7.25l2.1-12h20.37a7,7,0,0,0,1.74-.21,5.29,5.29,0,0,0,1.43-.59,3,3,0,0,0,1-1,2.27,2.27,0,0,0,.37-1.27,1.92,1.92,0,0,0-1-1.74,5.07,5.07,0,0,0-2.62-.57H299.79l5.81-6.09h15a23,23,0,0,1,3.73.31,11.27,11.27,0,0,1,3.46,1.14,7.21,7.21,0,0,1,2.54,2.19,5.8,5.8,0,0,1,1,3.46,8.45,8.45,0,0,1-.54,3,8.8,8.8,0,0,1-1.54,2.59,9.2,9.2,0,0,1-2.4,2,9.7,9.7,0,0,1-3.08,1.12c.33.31.69.69,1.1,1.16s.94,1.11,1.59,1.92Z"/><path class="cls-1" d="M342.52,337.55l5.46-6h8c.75,0,1.4,0,2,.07-.25-.42-.55-1-.87-1.59s-.63-1.24-.91-1.8l-3.12-6.2-13.72,15.54H330.8l18.76-21.17a10,10,0,0,1,2.17-1.82,5.37,5.37,0,0,1,3-.81,4.13,4.13,0,0,1,2.61.75,6,6,0,0,1,1.56,1.88l10.88,21.17Z"/><path class="cls-1" d="M379.69,337.55h-7.24l4.16-23.41h7.21Z"/><path class="cls-1" d="M407.87,337.94a3.9,3.9,0,0,1-1.35-.23,3.78,3.78,0,0,1-1.35-1L393.1,323.8l-2.42,13.75H384.1l3.4-19.42a6.81,6.81,0,0,1,.66-2,4.44,4.44,0,0,1,1.11-1.36,4.23,4.23,0,0,1,1.41-.77,5,5,0,0,1,1.58-.25,4.18,4.18,0,0,1,1.33.23,3.35,3.35,0,0,1,1.36,1L407,327.89l2.45-13.75h6.58l-3.47,19.39a6.22,6.22,0,0,1-.68,2,5.15,5.15,0,0,1-1.1,1.38,3.83,3.83,0,0,1-1.4.79A5.22,5.22,0,0,1,407.87,337.94Z"/><path class="cls-1" d="M423.55,337.55H416.3l4.17-23.41h7.21Z"/><path class="cls-1" d="M451.72,337.94a3.9,3.9,0,0,1-1.35-.23,3.84,3.84,0,0,1-1.34-1L437,323.8l-2.41,13.75H428l3.39-19.42a6.53,6.53,0,0,1,.67-2,4.41,4.41,0,0,1,1.1-1.36,4.18,4.18,0,0,1,1.42-.77,4.91,4.91,0,0,1,1.57-.25,4.14,4.14,0,0,1,1.33.23,3.44,3.44,0,0,1,1.37,1l12.07,12.88,2.45-13.75h6.58l-3.46,19.39a6.22,6.22,0,0,1-.69,2,5,5,0,0,1-1.1,1.38,3.83,3.83,0,0,1-1.4.79A5.17,5.17,0,0,1,451.72,337.94Z"/><path class="cls-1" d="M477.1,322.92h15l-2.59,14.63H473.42a15,15,0,0,1-5-.79,11.55,11.55,0,0,1-3.85-2.17,9.63,9.63,0,0,1-3.34-7.36,10.94,10.94,0,0,1,1.3-5.29,13.13,13.13,0,0,1,3.5-4.15,16.52,16.52,0,0,1,5.18-2.69,20.46,20.46,0,0,1,6.33-1h16.77l-5.78,6.09H476.47a9.45,9.45,0,0,0-3.07.49,8.09,8.09,0,0,0-2.53,1.36,6.89,6.89,0,0,0-1.74,2.07,5.32,5.32,0,0,0-.64,2.59,4.25,4.25,0,0,0,1.62,3.5,6.84,6.84,0,0,0,4.36,1.29h8.89l.6-3.39H471.81Z"/><polygon class="cls-1" points="365.58 142.06 277.43 142.06 233.36 218.4 277.43 294.73 365.58 294.73 409.65 218.4 365.58 142.06"/><polygon class="cls-2" points="365.58 142.06 277.43 142.06 233.36 218.4 277.43 294.73 365.58 294.73 409.65 218.4 365.58 142.06"/><path d="M323.91,190l-36.81,7.76,1.65,28.85,7.06,2.59-6.94,1.56h10.36l1.52-28.5,1.4,25.44,7.2,2.52-7,1.5h12.12l1.28-22.9,1.1,18,9.51,3.42-9.27,1.45h13.78L332.14,208l1.22,18.34,10.48,3.84-10.18,1.5h14.2L348,230c0-.54.12-1.56.24-2.95l2.13-34.15Z"/><path d="M339.7,243.3v-9.56H326.29l-5.24,10.16,27.24,2.89,7.62-13H343.29Z"/><path d="M351.28,210.89c-.61,11-.92,16.78-1,17.38l-.24,3.49h5.91Z"/></svg>