<?xml version="1.0" standalone="no"?>
<!DOCTYPE svg PUBLIC "-//W3C//DTD SVG 20010904//EN"
 "http://www.w3.org/TR/2001/REC-SVG-20010904/DTD/svg10.dtd">
<svg version="1.0" xmlns="http://www.w3.org/2000/svg"
 width="1080.000000pt" height="1080.000000pt" viewBox="0 0 1080.000000 1080.000000"
 preserveAspectRatio="xMidYMid meet">
<metadata>
Created by potrace 1.16, written by Peter Selinger 2001-2019
</metadata>
<g transform="translate(0.000000,1080.000000) scale(0.100000,-0.100000)"
fill="#000000" stroke="none">
<path d="M0 5400 l0 -5400 5400 0 5400 0 0 5400 0 5400 -5400 0 -5400 0 0
-5400z m6225 1796 c8 -7 11 -16 8 -20 -4 -3 0 -6 7 -6 7 0 11 -3 7 -6 -3 -4 4
-15 16 -26 12 -11 16 -16 8 -12 -8 4 -3 -8 12 -28 15 -19 24 -38 21 -41 -4 -4
1 -9 10 -13 9 -3 13 -10 10 -15 -3 -5 0 -9 6 -9 6 0 9 -4 6 -9 -3 -5 1 -11 9
-15 8 -3 15 -14 15 -25 0 -10 7 -22 16 -25 9 -4 14 -13 10 -21 -3 -8 -1 -15 4
-15 5 0 14 -10 21 -21 9 -17 8 -20 -3 -14 -7 3 -4 -2 7 -12 11 -10 27 -27 35
-38 13 -17 13 -18 0 -10 -13 8 -13 7 0 -11 8 -10 20 -22 25 -26 6 -5 6 -8 1
-8 -6 0 -1 -7 10 -16 10 -8 12 -12 4 -8 -8 4 -5 -4 8 -18 12 -13 19 -28 15
-31 -3 -4 -1 -7 6 -7 7 0 9 -4 6 -10 -3 -5 -2 -10 3 -10 5 0 17 -12 27 -26 11
-18 13 -24 4 -19 -8 5 -3 -3 10 -18 12 -14 21 -30 17 -35 -3 -5 6 -19 19 -32
13 -13 22 -27 19 -31 -3 -5 0 -9 6 -9 6 0 9 -4 6 -9 -3 -5 1 -11 9 -15 8 -3
12 -12 9 -21 -4 -8 1 -17 10 -21 9 -3 14 -10 11 -14 -3 -4 2 -10 10 -14 9 -3
12 -12 8 -22 -4 -12 -3 -15 5 -10 7 4 12 2 12 -5 0 -7 8 -21 18 -32 12 -15 13
-18 2 -12 -8 4 -4 -4 9 -19 14 -14 26 -33 27 -41 1 -7 11 -24 23 -36 11 -12
18 -26 15 -31 -3 -4 0 -8 6 -8 6 0 8 -4 5 -10 -3 -5 -2 -10 2 -10 5 0 14 -9
21 -21 11 -17 11 -20 0 -13 -7 4 -1 -6 13 -22 15 -16 24 -35 22 -41 -3 -7 0
-13 5 -13 6 0 14 -10 18 -22 4 -13 17 -34 30 -47 13 -13 21 -27 18 -32 -3 -5
0 -9 6 -9 6 0 8 -4 5 -10 -3 -5 -1 -10 6 -10 7 0 9 -3 6 -7 -4 -3 1 -12 11
-20 9 -8 11 -12 5 -8 -20 10 -15 -2 9 -24 31 -30 30 -102 -3 -138 -13 -14 -17
-23 -9 -19 9 5 8 2 -2 -7 -10 -8 -15 -17 -11 -20 3 -4 1 -7 -6 -7 -7 0 -9 -4
-6 -10 3 -5 1 -10 -5 -10 -6 0 -8 -4 -5 -10 3 -5 1 -10 -4 -10 -6 0 -11 -5
-11 -11 0 -7 -8 -18 -17 -26 -11 -9 -12 -11 -3 -7 11 6 10 2 -3 -13 -9 -11
-14 -23 -10 -26 3 -4 -2 -7 -11 -7 -10 0 -16 -6 -13 -12 2 -7 -7 -26 -22 -42
-14 -16 -20 -26 -13 -22 11 7 11 4 0 -13 -7 -12 -16 -21 -21 -21 -4 0 -5 -4
-2 -10 3 -5 1 -10 -5 -10 -6 0 -9 -4 -6 -8 3 -5 -4 -19 -15 -31 -12 -12 -22
-29 -23 -36 -1 -8 -13 -27 -27 -41 -13 -15 -18 -24 -12 -20 8 4 6 -5 -4 -23
-10 -16 -22 -27 -27 -24 -5 4 -7 -1 -4 -9 4 -8 -2 -22 -13 -32 -11 -9 -17 -21
-14 -26 3 -6 1 -10 -5 -10 -6 0 -9 -4 -6 -9 3 -5 -1 -12 -10 -15 -8 -3 -12
-10 -9 -16 3 -5 1 -10 -5 -10 -6 0 -8 -4 -5 -10 3 -5 1 -10 -6 -10 -7 0 -9 -3
-6 -7 4 -3 0 -11 -9 -17 -8 -6 -16 -19 -18 -28 -1 -10 -11 -27 -22 -39 -10
-12 -13 -19 -5 -14 9 5 7 -1 -4 -19 -10 -14 -22 -26 -27 -26 -5 0 -6 -4 -3
-10 3 -5 1 -10 -5 -10 -6 0 -9 -4 -6 -9 3 -4 -3 -16 -14 -26 -11 -10 -17 -21
-15 -25 3 -5 -7 -23 -22 -41 -16 -18 -21 -29 -13 -24 13 8 13 7 0 -11 -8 -10
-23 -25 -32 -32 -20 -15 -24 -36 -5 -27 6 4 1 -3 -11 -14 -13 -11 -25 -26 -26
-33 -7 -31 -26 -68 -36 -68 -6 0 -8 -4 -5 -10 3 -5 1 -10 -6 -10 -7 0 -9 -3
-6 -7 4 -3 -1 -12 -11 -20 -10 -9 -11 -11 -2 -7 8 5 -1 -12 -20 -36 -19 -24
-29 -40 -21 -35 9 5 7 -2 -5 -18 -10 -15 -23 -27 -27 -27 -5 0 -6 -4 -2 -9 3
-5 -2 -17 -11 -25 -14 -14 -101 -16 -833 -16 -848 0 -841 0 -841 40 0 9 -9 26
-19 37 -11 12 -17 24 -14 27 4 3 0 6 -7 6 -7 0 -11 3 -7 6 3 3 -1 13 -9 22 -8
10 -14 21 -13 26 0 5 -3 12 -8 15 -16 11 -46 64 -32 56 8 -5 2 4 -13 19 -15
15 -24 34 -21 42 3 8 -1 14 -8 14 -8 0 -19 11 -26 25 -8 19 -8 23 0 18 7 -3 0
6 -15 21 -15 16 -25 32 -23 36 3 5 0 14 -7 22 -7 7 -20 22 -28 32 -13 18 -13
19 0 12 8 -4 6 0 -4 8 -11 9 -16 16 -10 16 5 0 3 4 -4 9 -7 4 -14 15 -15 23
-2 8 -13 27 -25 42 -12 16 -19 32 -16 37 3 5 1 9 -4 9 -5 0 -17 12 -27 26 -11
18 -13 24 -4 19 8 -5 4 3 -8 17 -13 13 -23 32 -23 41 0 10 -7 20 -15 23 -8 4
-12 10 -9 15 3 5 0 9 -6 9 -6 0 -8 5 -5 10 3 6 1 10 -5 10 -6 0 -9 4 -5 9 3 6
-2 14 -10 18 -8 5 -17 20 -20 33 -3 13 -11 28 -19 32 -9 5 -13 14 -10 21 2 7
-7 24 -20 36 -14 13 -23 28 -20 33 4 5 -3 16 -14 24 -12 8 -19 20 -16 27 2 6
-7 24 -20 38 -14 15 -22 30 -19 33 4 3 1 6 -6 6 -7 0 -10 4 -7 9 3 4 -3 16
-14 26 -11 10 -17 22 -14 26 3 5 0 9 -6 9 -6 0 -8 5 -5 10 3 6 2 10 -2 10 -5
0 -14 9 -21 21 -11 17 -11 20 0 13 7 -4 1 6 -13 22 -15 16 -24 35 -22 42 3 6
0 12 -5 12 -5 0 -17 12 -27 26 -11 18 -13 24 -4 19 8 -5 5 2 -6 14 -11 12 -19
37 -19 56 0 19 8 44 19 56 11 12 14 19 6 14 -9 -5 -7 1 4 19 10 14 22 26 27
26 5 0 6 5 2 11 -3 6 7 24 22 41 16 17 23 27 15 23 -10 -5 -8 2 5 24 10 17 22
31 27 31 4 0 6 4 3 9 -3 4 3 16 14 26 11 10 17 22 14 26 -3 5 0 9 7 9 7 0 9 3
6 7 -4 4 5 20 20 36 16 17 22 27 16 23 -21 -12 -15 1 13 29 14 14 23 29 20 34
-3 4 6 19 20 32 13 12 22 29 19 36 -2 8 2 16 10 19 8 4 12 10 9 15 -3 5 0 9 6
9 6 0 8 4 5 10 -3 5 3 17 14 27 11 9 18 20 15 25 -3 4 0 8 6 8 6 0 8 5 5 10
-3 6 -1 10 5 10 6 0 9 4 6 9 -3 5 1 11 9 15 8 3 15 13 15 23 0 9 10 28 23 41
12 14 16 22 8 17 -9 -5 -7 2 5 18 10 15 23 27 27 27 5 0 6 4 3 9 -4 5 6 24 21
42 16 18 21 29 13 24 -13 -8 -13 -7 0 11 8 10 17 21 20 24 3 3 12 14 20 24 13
18 13 19 0 12 -9 -4 -8 -2 2 7 10 8 15 17 11 20 -3 4 -1 7 6 7 7 0 9 5 6 10
-3 6 -1 10 6 10 7 0 9 3 6 7 -4 4 5 20 20 36 16 17 21 26 13 22 -15 -9 16 33
35 47 5 4 6 10 2 14 -4 4 5 21 20 37 16 17 22 27 15 23 -11 -7 -11 -4 0 13 7
12 16 21 21 21 4 0 5 5 2 10 -3 6 -1 10 5 10 6 0 9 4 6 8 -3 5 3 18 14 29 10
12 16 24 13 27 -4 3 -1 6 5 6 7 0 12 3 11 8 -3 17 14 51 22 46 5 -3 9 4 9 15
0 10 6 22 13 24 6 3 380 6 830 6 684 1 821 -1 832 -13z m-2045 -3092 c0 -3
-21 -30 -46 -59 l-45 -53 -135 -4 -136 -3 -29 -33 c-37 -42 -39 -83 -3 -111
24 -19 40 -21 185 -21 88 0 159 -3 159 -7 -1 -5 -20 -29 -45 -55 l-43 -48
-138 0 c-119 0 -143 3 -181 21 -74 36 -106 110 -89 204 13 70 105 146 199 165
48 9 347 13 347 4z m457 -9 c62 -19 112 -70 114 -118 7 -137 -27 -199 -136
-249 -44 -20 -66 -23 -185 -23 -119 0 -140 3 -175 21 -66 36 -79 57 -83 134
-2 37 1 84 7 103 18 54 76 105 145 127 77 24 240 27 313 5z m396 -3 c9 -10 34
-63 54 -119 21 -55 41 -102 45 -104 4 -2 44 46 89 106 46 61 90 115 98 122 27
21 89 16 101 -8 9 -16 49 -314 50 -366 0 -9 -19 -13 -64 -13 l-64 0 -6 63 c-4
34 -9 83 -12 109 l-6 48 -74 -105 c-78 -111 -95 -125 -143 -125 -42 0 -54 17
-92 125 -19 52 -37 95 -40 95 -3 0 -25 -45 -49 -101 -24 -55 -48 -103 -55
-105 -7 -3 -37 -4 -68 -2 l-55 3 84 180 c46 99 94 188 105 198 28 22 81 22
102 -1z m942 8 c81 -18 110 -98 59 -159 -24 -29 -24 -31 -8 -56 21 -31 14 -97
-13 -127 -37 -43 -71 -48 -296 -48 l-213 0 20 118 21 117 190 6 c105 3 191 6
193 7 1 1 2 9 2 17 0 13 -27 15 -185 15 -102 0 -185 3 -185 7 0 4 23 31 52 60
l52 53 136 0 c74 0 153 -5 175 -10z m524 -9 c10 -10 60 -100 110 -200 l92
-181 -231 0 c-126 0 -230 3 -230 7 0 4 21 29 47 55 l47 48 73 0 c40 0 73 3 73
8 -1 4 -15 35 -33 69 l-32 62 -109 -124 -109 -125 -80 0 -80 0 19 23 c11 12
89 99 172 194 84 94 158 174 165 176 30 13 88 6 106 -12z m801 12 c0 -4 -23
-31 -52 -60 l-52 -53 -67 0 -67 0 -12 -72 c-7 -40 -18 -102 -24 -138 l-12 -65
-67 -3 c-66 -3 -67 -2 -63 20 3 13 12 64 21 113 9 50 18 102 21 118 l6 27 -91
0 c-50 0 -91 3 -91 7 0 3 21 30 48 59 l47 52 228 1 c125 1 227 -2 227 -6z"/>
<path d="M5928 6725 c-2 -2 -248 -5 -547 -5 -312 0 -539 -4 -536 -10 3 -4 -2
-16 -11 -24 -8 -9 -12 -16 -8 -16 4 0 -1 -7 -12 -16 -10 -8 -12 -12 -4 -8 8 4
5 -4 -8 -18 -12 -13 -19 -28 -15 -31 3 -4 1 -7 -6 -7 -7 0 -10 -4 -7 -9 3 -4
-3 -16 -14 -26 -11 -10 -17 -22 -14 -26 3 -5 0 -9 -5 -9 -6 0 -10 -3 -9 -7 3
-9 -28 -59 -55 -90 -10 -12 -16 -26 -13 -32 4 -5 1 -13 -6 -18 -19 -12 -47
-49 -30 -39 11 7 12 4 3 -13 -7 -11 -16 -21 -22 -21 -6 0 -7 -4 -4 -10 3 -5 1
-10 -5 -10 -6 0 -8 -4 -5 -10 3 -5 1 -10 -5 -10 -6 0 -9 -4 -6 -9 3 -5 -1 -12
-10 -15 -8 -3 -12 -10 -9 -16 3 -5 1 -10 -5 -10 -6 0 -9 -4 -5 -9 3 -6 -5 -20
-17 -32 -13 -12 -16 -18 -8 -14 13 8 13 7 0 -11 -8 -10 -23 -30 -35 -43 -12
-14 -14 -21 -5 -16 8 5 4 -4 -9 -19 -14 -14 -26 -34 -27 -42 -2 -9 -12 -26
-23 -38 -12 -13 -18 -26 -14 -29 3 -4 1 -7 -6 -7 -7 0 -9 -4 -6 -10 3 -5 1
-10 -6 -10 -7 0 -9 -3 -6 -7 4 -3 -1 -12 -11 -20 -11 -10 -12 -12 -2 -8 10 4
9 2 -2 -8 -10 -8 -15 -17 -11 -20 3 -4 1 -7 -6 -7 -7 0 -9 -4 -6 -10 3 -5 1
-10 -5 -10 -6 0 -9 -4 -5 -9 3 -5 1 -12 -5 -16 -7 -4 -7 -12 0 -26 6 -10 7
-19 3 -19 -3 0 6 -13 22 -30 17 -17 23 -30 15 -30 -8 0 -4 -8 10 -20 13 -11
19 -20 15 -20 -5 0 0 -7 11 -16 10 -8 12 -12 4 -8 -8 4 -4 -5 9 -19 14 -15 21
-27 16 -27 -5 0 0 -7 11 -16 10 -8 13 -12 5 -8 -20 10 -3 -17 22 -35 10 -7 16
-19 13 -27 -3 -8 -2 -14 2 -14 4 0 16 -12 26 -27 12 -16 14 -23 5 -18 -8 5 -2
-6 14 -24 15 -18 25 -37 21 -42 -3 -5 2 -12 10 -15 9 -3 13 -10 10 -15 -3 -5
0 -9 6 -9 6 0 8 -4 5 -10 -3 -5 -1 -10 5 -10 6 0 8 -4 5 -10 -3 -5 -2 -10 2
-10 5 0 14 -9 21 -21 11 -17 11 -20 0 -13 -17 10 11 -27 29 -39 7 -4 10 -13 7
-20 -2 -7 7 -24 21 -37 14 -13 25 -29 25 -36 0 -6 7 -17 15 -24 8 -7 12 -16 9
-21 -3 -5 0 -9 6 -9 6 0 9 -4 6 -9 -3 -4 3 -16 14 -26 11 -10 17 -22 14 -26
-3 -5 0 -9 6 -9 6 0 9 -4 5 -9 -3 -6 5 -20 17 -32 13 -12 16 -18 8 -14 -13 8
-13 7 0 -11 8 -10 21 -25 28 -32 7 -8 10 -18 7 -23 -4 -5 220 -10 544 -11 302
-2 548 0 546 3 -2 3 5 13 16 22 11 10 17 22 14 27 -3 6 -1 10 5 10 6 0 9 4 6
9 -3 4 3 16 14 26 11 10 17 22 14 26 -3 5 0 9 6 9 6 0 8 5 5 10 -3 6 -2 10 4
10 6 0 13 11 17 24 3 13 16 34 29 46 13 12 21 28 18 36 -3 8 2 16 10 20 9 3
14 11 11 17 -2 7 7 24 20 38 14 15 22 30 19 33 -4 3 -1 6 6 6 7 0 9 4 6 10 -3
5 3 17 15 27 11 10 20 25 20 34 0 9 9 24 19 33 11 10 22 28 25 42 4 13 11 24
17 24 6 0 8 4 4 9 -3 5 6 22 20 37 13 14 22 30 19 35 -3 5 0 9 5 9 6 0 10 3
10 8 -3 19 2 33 11 27 6 -3 10 -3 11 2 3 30 10 47 26 60 10 8 12 11 4 7 -9 -5
-8 2 5 19 10 15 22 27 26 27 4 0 5 6 3 13 -3 6 6 24 19 38 14 15 22 30 18 34
-4 4 2 13 12 21 11 8 16 14 10 14 -5 0 -3 4 5 9 11 7 10 12 -7 27 -12 10 -18
22 -15 27 3 5 2 12 -3 16 -19 13 -49 54 -34 46 8 -4 3 5 -13 22 -15 16 -24 33
-20 37 5 4 -1 14 -11 22 -11 8 -16 14 -11 14 5 0 0 7 -11 16 -10 8 -12 13 -4
9 10 -4 9 -2 -2 8 -10 8 -15 17 -11 20 3 4 0 7 -7 7 -7 0 -10 3 -7 7 4 3 -1
12 -11 20 -9 8 -11 12 -5 8 8 -4 11 -1 7 9 -3 8 -12 17 -20 20 -8 3 -14 15
-14 26 0 11 -3 20 -7 20 -5 0 -17 12 -27 27 -12 16 -14 23 -5 18 8 -5 5 3 -6
16 -12 13 -27 33 -35 43 -13 18 -13 19 0 12 9 -4 8 -2 -2 7 -10 8 -15 17 -11
20 3 4 1 7 -6 7 -7 0 -9 5 -6 10 3 6 1 10 -6 10 -7 0 -10 3 -6 6 3 3 -5 18
-19 33 -13 14 -22 31 -20 38 3 6 0 13 -7 16 -7 2 -12 12 -12 23 0 12 -6 18
-15 16 -8 -2 -12 0 -7 4 4 4 -3 19 -15 32 -13 14 -16 21 -8 17 13 -8 13 -7 0
11 -8 10 -19 22 -25 26 -6 5 -6 8 -1 8 6 0 1 7 -10 16 -10 8 -12 12 -4 8 8 -4
5 4 -8 18 -12 13 -19 28 -15 31 3 4 0 7 -7 7 -7 0 -11 3 -7 6 3 3 -3 15 -13
27 -11 11 -17 24 -14 29 6 9 0 11 -8 3z m-368 -357 c27 -11 100 -16 100 -7 0
5 14 2 32 -7 23 -12 45 -15 84 -10 29 3 55 2 58 -3 3 -5 15 -7 26 -4 11 3 27
0 35 -7 8 -7 25 -10 39 -6 42 10 73 -11 80 -55 6 -36 -10 -214 -20 -231 -9
-14 9 -86 20 -82 17 6 45 -67 39 -100 -4 -19 -1 -33 8 -40 14 -11 20 -42 19
-103 0 -17 6 -38 13 -45 6 -7 12 -22 11 -33 0 -11 6 -33 14 -49 12 -24 12 -34
2 -49 -9 -16 -9 -21 2 -29 10 -7 9 -11 -6 -23 -11 -8 -16 -15 -11 -15 5 0 0
-7 -11 -16 -10 -8 -13 -13 -7 -9 8 4 11 1 7 -9 -3 -8 -12 -17 -20 -20 -9 -3
-12 -10 -9 -16 3 -5 1 -10 -6 -10 -7 0 -9 -3 -6 -7 4 -4 -5 -19 -20 -35 -14
-15 -23 -31 -20 -35 4 -3 -3 -18 -15 -31 -13 -14 -16 -22 -8 -18 8 4 6 0 -5
-9 -29 -23 -60 -29 -94 -17 -16 6 -39 8 -50 5 -12 -3 -28 0 -36 7 -12 10 -15
10 -15 0 0 -9 -4 -9 -17 1 -10 9 -43 14 -92 14 -42 0 -81 4 -88 8 -6 4 -41 8
-77 8 -75 1 -99 17 -78 50 7 11 10 24 7 28 -2 5 2 14 10 21 8 7 12 16 9 21 -3
5 0 9 7 9 7 0 9 3 6 7 -4 3 3 17 15 30 12 12 18 26 15 30 -4 3 0 15 10 25 13
14 31 18 85 18 51 0 68 3 68 14 0 9 16 16 43 20 23 4 49 11 57 16 13 9 12 12
-5 23 -19 12 -25 13 -53 16 -7 0 -10 6 -6 13 5 8 2 9 -9 5 -9 -3 -19 -2 -22 3
-11 17 -20 11 -32 -20 -6 -16 -7 -30 -2 -30 16 0 9 -29 -8 -34 -28 -8 -271
-12 -278 -4 -3 3 7 9 24 13 17 4 29 11 25 16 -3 5 0 9 5 9 6 0 11 -5 11 -10 0
-7 7 -7 21 0 11 7 27 9 35 6 9 -4 12 -2 8 5 -3 6 -15 9 -25 6 -11 -3 -19 -1
-19 5 0 5 -4 7 -9 3 -5 -3 -13 0 -16 6 -4 5 -14 8 -22 5 -9 -4 -11 -2 -7 6 5
8 2 9 -10 5 -9 -4 -15 -3 -12 2 3 5 -3 11 -14 14 -19 5 -23 -4 -33 -83 -2 -12
-25 -16 -130 -18 -78 -2 -127 1 -127 7 0 6 16 13 34 17 l35 6 -24 24 c-13 13
-28 24 -33 24 -14 0 -32 48 -33 88 -1 33 -2 34 -9 12 -4 -14 -8 -53 -9 -87
l-1 -63 -110 0 c-60 0 -110 2 -110 4 0 2 16 11 35 20 33 16 40 44 8 32 -8 -3
-11 -1 -8 4 3 6 -3 10 -14 10 -16 0 -21 7 -22 28 0 24 -1 25 -9 7 -7 -17 -9
-14 -9 13 -1 21 3 31 10 27 7 -5 8 4 5 27 -7 44 -26 237 -26 268 -2 236 1 245
58 234 20 -4 32 -3 29 2 -3 5 13 10 36 12 23 1 44 8 48 14 4 6 26 11 50 11 24
-1 50 4 57 10 7 5 15 7 19 4 3 -3 18 0 34 8 17 9 39 12 60 8 23 -4 30 -3 25 5
-5 8 -2 10 8 6 9 -3 16 -2 16 4 0 5 12 8 27 6 15 -1 31 3 35 9 4 7 27 11 53
10 25 -1 43 2 40 7 -3 4 6 7 19 6 13 -2 36 2 52 8 29 13 98 14 124 4z m177
-14 c-3 -3 -12 -4 -19 -1 -8 3 -5 6 6 6 11 1 17 -2 13 -5z m-764 -811 c-23 -2
-64 -2 -90 0 -26 2 -7 3 42 3 50 0 71 -1 48 -3z m724 -289 c-3 -3 -12 -4 -19
-1 -8 3 -5 6 6 6 11 1 17 -2 13 -5z"/>
<path d="M5043 5860 c0 -36 2 -50 4 -32 2 17 2 47 0 65 -2 17 -4 3 -4 -33z"/>
<path d="M5982 5802 c2 -61 7 -112 11 -112 8 0 -1 211 -10 220 -2 2 -3 -46 -1
-108z"/>
<path d="M6001 5864 c0 -11 3 -14 6 -6 3 7 2 16 -1 19 -3 4 -6 -2 -5 -13z"/>
<path d="M5333 5740 c0 -47 2 -66 4 -42 2 23 2 61 0 85 -2 23 -4 4 -4 -43z"/>
<path d="M5653 5745 c0 -33 2 -45 4 -27 2 18 2 45 0 60 -2 15 -4 0 -4 -33z"/>
<path d="M5041 5764 c0 -11 3 -14 6 -6 3 7 2 16 -1 19 -3 4 -6 -2 -5 -13z"/>
<path d="M5971 5654 c0 -11 3 -14 6 -6 3 7 2 16 -1 19 -3 4 -6 -2 -5 -13z"/>
<path d="M5135 5580 c27 -12 43 -12 25 0 -8 5 -22 9 -30 9 -10 0 -8 -3 5 -9z"/>
<path d="M5960 5536 c0 -9 5 -16 10 -16 6 0 10 4 10 9 0 6 -4 13 -10 16 -5 3
-10 -1 -10 -9z"/>
<path d="M5802 5453 l1 -78 7 65 c6 56 14 52 11 -5 l-1 -20 9 20 c5 11 7 23 4
27 -2 5 3 18 11 30 22 32 20 38 -14 38 l-30 0 2 -77z"/>
<path d="M4353 3985 c-39 -16 -53 -42 -53 -93 0 -56 24 -74 109 -80 149 -10
211 19 211 100 0 52 -7 64 -43 77 -40 16 -186 13 -224 -4z"/>
<path d="M5660 3840 c0 -20 5 -21 123 -18 100 3 122 6 122 18 0 12 -22 15
-122 18 -118 3 -123 2 -123 -18z"/>
</g>
</svg>
