<svg id="Capa_1" data-name="Capa 1" xmlns="http://www.w3.org/2000/svg" viewBox="0 0 640 480"><defs><style>.cls-4{fill:red;}.cls-2{fill:none;stroke:#000;stroke-miterlimit:10;stroke-width:8px;}</style></defs><path class="cls-4" d="M226.74,314.14,221,320.23H206.69l-.53,3H223.8L218.41,329H205.15l-1.51,8.57h-7.28l4.17-23.41Z"/><path class="cls-4" d="M232.41,337.55h-7.24l4.16-23.41h7.21Z"/><path class="cls-4" d="M254,322.92h15l-2.59,14.63H250.3a15,15,0,0,1-5-.79,11.45,11.45,0,0,1-3.85-2.17,9.76,9.76,0,0,1-2.47-3.27,9.65,9.65,0,0,1-.87-4.09,11,11,0,0,1,1.29-5.29,13.26,13.26,0,0,1,3.5-4.15,16.63,16.63,0,0,1,5.18-2.69,20.57,20.57,0,0,1,6.34-1h16.76l-5.77,6.09H253.34a9.43,9.43,0,0,0-3.06.49,8.14,8.14,0,0,0-2.54,1.36,6.86,6.86,0,0,0-1.73,2.07,5.32,5.32,0,0,0-.65,2.59,4.26,4.26,0,0,0,1.63,3.5,6.84,6.84,0,0,0,4.36,1.29h8.89l.59-3.39H248.69Z"/><path class="cls-4" d="M299,337.55h-7.21l1.61-9h-14l-1.57,9h-7.28l4.16-23.41h7.25l-1.51,8.29h14l1.47-8.29h7.24Z"/><path class="cls-4" d="M336.64,314.14l-5.81,6.09H322.5l-3.08,17.32h-7.24l3-17.32h-11l5.81-6.09Z"/><path class="cls-4" d="M359.71,328.84l-.93-2.4c-.27-.69-.5-1.31-.68-1.86s-.36-1-.51-1.48-.29-.88-.4-1.3c-.26.42-.54.85-.84,1.3s-.65.94-1,1.48-.82,1.17-1.33,1.84l-1.76,2.38-4.94,6.65a6.46,6.46,0,0,1-1.89,1.8,4.58,4.58,0,0,1-2.52.69,3.64,3.64,0,0,1-2.34-.79,3.44,3.44,0,0,1-1.16-2.43l-2.27-20.58h7.21l.77,8.15c.11,1.33.21,2.5.28,3.5s.12,2,.17,2.94c.52-.79,1.1-1.69,1.77-2.69s1.55-2.27,2.64-3.78l4.2-5.88a11.86,11.86,0,0,1,1.17-1.37,4.65,4.65,0,0,1,1.09-.8,3.57,3.57,0,0,1,1.1-.37,7.81,7.81,0,0,1,1.23-.09,7.68,7.68,0,0,1,1.22.09,2.5,2.5,0,0,1,1,.37,2.94,2.94,0,0,1,.8.78,5.44,5.44,0,0,1,.69,1.39l2.1,5.91.73,2.15c.21.62.4,1.18.58,1.68l.47,1.39c.14.42.27.83.39,1.22.32-.93.7-1.91,1.13-2.94s1-2.19,1.56-3.5l3.68-8.15h7.1l-9.73,20.58a5.69,5.69,0,0,1-2,2.43,4.82,4.82,0,0,1-2.63.79,3.54,3.54,0,0,1-2.24-.67,4.19,4.19,0,0,1-1.29-1.82Z"/><path class="cls-4" d="M398,313.75q7.62,0,11.42,2.4c2.54,1.6,3.8,4.1,3.8,7.51,0,4.8-1.61,8.39-4.83,10.74s-8.11,3.54-14.66,3.54q-7.64,0-11.43-2.42T378.5,328q0-7.22,4.83-10.73T398,313.75Zm-3.22,18.1a41.67,41.67,0,0,0,5.72-.32,7.87,7.87,0,0,0,3.39-1.15,4.08,4.08,0,0,0,1.63-2.3,13.48,13.48,0,0,0,.42-3.69,4.57,4.57,0,0,0-.51-2.29,3.34,3.34,0,0,0-1.61-1.4A8.7,8.7,0,0,0,401,320a40.11,40.11,0,0,0-4.1-.18,41,41,0,0,0-5.7.32,7.87,7.87,0,0,0-3.38,1.15,4.09,4.09,0,0,0-1.63,2.29,13.6,13.6,0,0,0-.42,3.7,4.49,4.49,0,0,0,.53,2.31,3.56,3.56,0,0,0,1.61,1.38,8.5,8.5,0,0,0,2.78.68A39.42,39.42,0,0,0,394.78,331.85Z"/><path class="cls-4" d="M446.65,324.08a11.15,11.15,0,0,1-1.3,5.28,13.61,13.61,0,0,1-3.53,4.27,17.22,17.22,0,0,1-5.22,2.87,18.85,18.85,0,0,1-6.33,1.05H414.59L417.18,323h7.24l-1.5,8.57h8.4a10.53,10.53,0,0,0,3.13-.45,7.91,7.91,0,0,0,2.52-1.3,6.42,6.42,0,0,0,1.7-2,5.34,5.34,0,0,0,.63-2.57,4.58,4.58,0,0,0-.44-2,4.66,4.66,0,0,0-1.23-1.57,5.56,5.56,0,0,0-1.89-1,7.75,7.75,0,0,0-2.43-.36H417.63l5.71-6.09H434.4a16.19,16.19,0,0,1,5,.73,11.9,11.9,0,0,1,3.87,2.05,9,9,0,0,1,3.36,7.16Z"/><polygon class="cls-4" points="365.58 142.06 277.43 142.06 233.36 218.4 277.43 294.73 365.58 294.73 409.65 218.4 365.58 142.06"/><polygon class="cls-2" points="365.58 142.06 277.43 142.06 233.36 218.4 277.43 294.73 365.58 294.73 409.65 218.4 365.58 142.06"/><path d="M344.34,244.53a22.84,22.84,0,1,1-22.43-23.2A22.93,22.93,0,0,1,344.34,244.53Zm-22.79,16.14A16.56,16.56,0,1,0,305,244.28,16.61,16.61,0,0,0,321.55,260.67Z"/><path d="M325.48,222.35h-7.82V169.84h7.82Z"/><path d="M330.87,169.77h4.65c.05.9.14,1.75.14,2.6,0,11-.24,22,.13,32.94.16,4.64-1.44,7.94-4.92,11Z"/><path d="M312.28,216.47c-3.31-3.08-5.12-6.18-5-10.78.38-11,.12-22,.12-33v-2.85h4.84Z"/><polygon points="321.72 233.21 325.05 239.95 332.49 241.03 327.11 246.27 328.38 253.68 321.72 250.18 315.07 253.68 316.34 246.27 310.96 241.03 318.4 239.95 321.72 233.21"/></svg>