<svg id="Capa_1" data-name="Capa 1" xmlns="http://www.w3.org/2000/svg" viewBox="0 0 640 480"><defs><style>.cls-4{fill:#006dff;}.cls-2{fill:none;stroke:#000;stroke-miterlimit:10;stroke-width:8px;}</style></defs><path class="cls-4" d="M232.15,337.55h-7.21l1.61-9h-14l-1.58,9h-7.28l4.17-23.41h7.24l-1.5,8.29h14l1.47-8.29h7.25Z"/><path class="cls-4" d="M244,337.55H236.7l4.17-23.41h7.21Z"/><path class="cls-4" d="M281.71,314.14l-5.81,6.09h-8.33l-3.08,17.32h-7.24l3-17.32h-11l5.81-6.09Z"/><path class="cls-4" d="M316.57,337.55H301.91a16.28,16.28,0,0,1-4-.42,7.19,7.19,0,0,1-2.61-1.17,4.3,4.3,0,0,1-1.4-1.77,5.67,5.67,0,0,1-.42-2.2,7.2,7.2,0,0,1,.39-2.45,5.78,5.78,0,0,1,1.05-1.89,6.29,6.29,0,0,1,3.29-2.14,3.9,3.9,0,0,1-1.72-1.36,4.23,4.23,0,0,1-.73-2.59,6.35,6.35,0,0,1,2.88-5.53,10,10,0,0,1,3.31-1.42,17.67,17.67,0,0,1,4.27-.47H316l-5.74,6.09h-5.42a3.59,3.59,0,0,0-1.61.36,1.42,1.42,0,0,0-.74,1.39,1.08,1.08,0,0,0,.54,1,2.77,2.77,0,0,0,1.25.28h19l-4.65,5h-3.85l-.56,3.22h8ZM301,330.2c0,.89.67,1.33,2,1.33h5.42l.56-3.22h-5.42a3.17,3.17,0,0,0-1.95.49A1.7,1.7,0,0,0,301,330.2Z"/><path class="cls-4" d="M370.33,337.55h-9.7l-4.13-6.19H345.37l-1.08,6.19H337l2.1-12h20.37a7,7,0,0,0,1.74-.21,5.16,5.16,0,0,0,1.43-.59,3,3,0,0,0,1-1,2.27,2.27,0,0,0,.37-1.27,1.92,1.92,0,0,0-.95-1.74,5.07,5.07,0,0,0-2.62-.57H340.09l5.81-6.09H361a22.89,22.89,0,0,1,3.73.31,11.27,11.27,0,0,1,3.46,1.14,7.21,7.21,0,0,1,2.54,2.19,5.8,5.8,0,0,1,1,3.46,8.45,8.45,0,0,1-.54,3,8.59,8.59,0,0,1-1.54,2.59,9.2,9.2,0,0,1-2.4,2,9.61,9.61,0,0,1-3.08,1.12c.33.31.69.69,1.1,1.16s.94,1.11,1.59,1.92Z"/><path class="cls-4" d="M405.12,327.33q-1.89,10.6-16.45,10.61-7.53,0-11-2.1a6.88,6.88,0,0,1-3.48-6.3,12.39,12.39,0,0,1,.21-2.21l2.34-13.19H384l-2.38,13.19a9.35,9.35,0,0,0-.11,1.3,2.89,2.89,0,0,0,.39,1.54,2.64,2.64,0,0,0,1.33,1,9.28,9.28,0,0,0,2.52.56,36.27,36.27,0,0,0,4,.18,21,21,0,0,0,3.55-.25,7,7,0,0,0,2.4-.8,4,4,0,0,0,1.45-1.44,6.18,6.18,0,0,0,.72-2.1l2.34-13.19h7.28Z"/><path class="cls-4" d="M431.09,337.94a3.9,3.9,0,0,1-1.35-.23,3.78,3.78,0,0,1-1.35-1L416.32,323.8l-2.42,13.75h-6.58l3.4-19.42a6.81,6.81,0,0,1,.66-2,4.44,4.44,0,0,1,1.11-1.36,4.23,4.23,0,0,1,1.41-.77,5,5,0,0,1,1.58-.25,4.14,4.14,0,0,1,1.33.23,3.35,3.35,0,0,1,1.36,1l12.08,12.88,2.45-13.75h6.58l-3.47,19.39a6.22,6.22,0,0,1-.68,2,5,5,0,0,1-1.1,1.38,3.83,3.83,0,0,1-1.4.79A5.17,5.17,0,0,1,431.09,337.94Z"/><polygon class="cls-4" points="365.58 142.06 277.43 142.06 233.36 218.4 277.43 294.73 365.58 294.73 409.65 218.4 365.58 142.06"/><polygon class="cls-2" points="365.58 142.06 277.43 142.06 233.36 218.4 277.43 294.73 365.58 294.73 409.65 218.4 365.58 142.06"/><path d="M326.53,182.06l-.08.07-.23.2c-.2.16-.51.37-.86.6a10.53,10.53,0,0,1-1.28.7,12.64,12.64,0,0,1-1.65.62,7.18,7.18,0,0,1-2,.35,11.32,11.32,0,0,1-2.37-.44,4.14,4.14,0,0,0-2.49.09,4.91,4.91,0,0,0-2,1.53c-.14.17-.26.35-.39.52a5.74,5.74,0,0,0-.36.5c-.24.32-.44.63-.67.89a6.48,6.48,0,0,0-.95,1.55c-.05.12-.1.24-.15.34a3.09,3.09,0,0,1-.14.32c-.06.1-.09.21-.14.3a2.75,2.75,0,0,0-.14.3c0,.1-.1.2-.15.3a3.05,3.05,0,0,0-.13.32,4.44,4.44,0,0,0-.26.67,11.92,11.92,0,0,0-.39,1.45,6.79,6.79,0,0,0-.15.7c0,.23-.09.45-.14.65-.06.4-.13.74-.18,1s-.1.38-.1.38l-.47.22s-.12-.06-.34-.2a8.28,8.28,0,0,1-.87-.65c-.17-.16-.34-.34-.53-.55l-.29-.33c-.09-.12-.17-.25-.26-.39a6.62,6.62,0,0,1-.92-2.07,7.06,7.06,0,0,1-.2-1.36,6.09,6.09,0,0,1,0-.74,6.93,6.93,0,0,1,.1-.78,6.29,6.29,0,0,1,1.42-3,10.31,10.31,0,0,1,2.54-2.06,6.51,6.51,0,0,1,1.46-.57l.38-.09.39-.06c.26,0,.51-.08.76-.1.51,0,1-.1,1.46-.16a9.08,9.08,0,0,0,1.32-.3,6,6,0,0,0,1.22-.52c.2-.11.39-.24.58-.37l.56-.41c.36-.29.74-.56,1.11-.82a4.81,4.81,0,0,1,1.14-.56,4.16,4.16,0,0,1,1.14-.21,7.85,7.85,0,0,1,1.08,0,7.73,7.73,0,0,1,1.9.29,7.29,7.29,0,0,1,1.47.56,5.73,5.73,0,0,1,.91.56l.23.19.09.07v.52"/><path d="M324.62,184.87a1.47,1.47,0,0,1-2.9-.48l.8-4.76a1.47,1.47,0,0,1,1.69-1.2,1.46,1.46,0,0,1,1.2,1.69l-.79,4.75"/><path d="M344.84,183.43c0-7.37-5-9.23-10.09-9.23s-13.58,3.45-9.44,16.78l14.22-13.21,5.31,5.66"/><path d="M343.46,184.41a8.72,8.72,0,1,1-8.71-8.7,8.7,8.7,0,0,1,8.71,8.7"/><path d="M339.13,197.54a26,26,0,0,0-4-1.48s-8,1-8.11,6.48c0,1.68.8,4.77.83,6.41a34.77,34.77,0,0,1-8.26,23h23.62s-11.82-13.94-2.32-20.23c3.92-2.6,5.33-6.4,2.54-9.6-1.74-2-3-3.72-4.33-4.57"/><path d="M338.14,198l15.74,6.49-2.69,1.3,6-13.9a2.29,2.29,0,0,1,4.21,1.81l-6,13.9a2.27,2.27,0,0,1-2.36,1.35l-.33,0-16.9-2.14a4.58,4.58,0,1,1,2.33-8.77"/><path d="M336.28,222.19,351.67,239l.23.24a2.62,2.62,0,0,1,.64,2.15l-3.1,18.68a2.61,2.61,0,0,1-5.16-.85l3.09-18.68.86,2.39L329.45,230a5.22,5.22,0,1,1,5.94-8.59,5.14,5.14,0,0,1,.89.77"/><path d="M329.94,231.43l-17,11.34-.31.21a2.58,2.58,0,0,1-2.23.3l-18-5.94a2.61,2.61,0,1,1,1.64-5l18,5.94-2.53.51,13.62-15.23a5.23,5.23,0,0,1,7.81,7,5.42,5.42,0,0,1-1,.87"/><path d="M332.8,190v9.62a1.95,1.95,0,1,0,3.89,0V190a1.95,1.95,0,0,0-3.89,0"/><path d="M333.71,205.69l-17-.78,2.09-2.14-.93,15.11a2.29,2.29,0,1,1-4.57-.28l.92-15.1a2.27,2.27,0,0,1,1.77-2.07l.32-.07,16.62-3.72a4.58,4.58,0,1,1,2,8.94,5,5,0,0,1-1.21.11"/><path d="M335.36,176.87l-49-1.16,49-1.17Z"/><path d="M327.88,210.62l-52.44-1.16,52.44-1.17Z"/><path d="M346.21,260.82l-49-1.17,49-1.16Z"/><path d="M310.86,243.32l-35.42-1.16L310.86,241Z"/><path d="M314.43,228.29c4.34.26,5.47-.73,5.59-3.71a27.1,27.1,0,0,0-.37-4.74c.45.29,1.11,2.19,1.18,4.19.66,0,2.42-.73,1.6-3.44-1-3.48-2.43-4.32-3.41-4.72a5.84,5.84,0,0,0-.28-2.62c-.36-.42-1.27-.74-3.44-.88s-3.16,0-3.45.45a10.52,10.52,0,0,0-.7,2.68,11.37,11.37,0,0,1,4.57-.32c.4.07.75.15,1.08.24-1.93,0-4.81.28-5.37.83-1.32,1.18-1.94,4.75-2.12,7.6C309.12,226.9,310.1,228,314.43,228.29Z"/><path d="M364.61,178.75c-4.21-1.51-5.61-.86-6.58,2.05a27.79,27.79,0,0,0-1,4.77c-.35-.41-.47-2.47,0-4.46-.63-.23-2.59,0-2.55,2.92,0,3.73,1.16,4.95,2,5.64a6,6,0,0,0-.48,2.65c.25.52,1.05,1.1,3.16,1.86s3.12.9,3.53.54a10.55,10.55,0,0,0,1.46-2.44,11.62,11.62,0,0,1-4.61-1c-.37-.18-.7-.36-1-.54,1.9.59,4.83,1.1,5.55.72,1.64-.78,3.27-4.13,4.26-6.88C369.46,181.64,368.81,180.26,364.61,178.75Z"/></svg>