<svg id="Capa_1" data-name="Capa 1" xmlns="http://www.w3.org/2000/svg" viewBox="0 0 640 480"><defs><style>.cls-6{fill:#ff9100;}.cls-2{fill:none;stroke:#000;stroke-miterlimit:10;stroke-width:8px;}</style></defs><path class="cls-6" d="M214.6,337.55h-11l-6-6.16c-1-1.05-1.82-1.86-2.36-2.45a17.78,17.78,0,0,1-1.28-1.47l-.49,3.36-1.19,6.72h-7.28l4.16-23.41h7.25l-.95,5.42c-.14.73-.29,1.44-.45,2.14s-.31,1.35-.42,2l2-1.56c.78-.62,1.77-1.37,3-2.26l7.77-5.7h10.5l-10.12,6.72-2.34,1.54c-.68.44-1.28.83-1.8,1.15l-1.42.88c-.42.25-.84.5-1.26.73.58.47,1.29,1,2.12,1.75s1.89,1.67,3.2,2.91Z"/><path class="cls-6" d="M224.33,337.55h-7.25l4.17-23.41h7.21Z"/><path class="cls-6" d="M260.9,324.08a11.14,11.14,0,0,1-1.29,5.28,13.64,13.64,0,0,1-3.54,4.27,17.17,17.17,0,0,1-5.21,2.87,19,19,0,0,1-6.34,1.05H228.84L231.43,323h7.25l-1.51,8.57h8.4a10.48,10.48,0,0,0,3.13-.45,7.91,7.91,0,0,0,2.52-1.3,6.29,6.29,0,0,0,1.7-2,5.34,5.34,0,0,0,.63-2.57,4.57,4.57,0,0,0-.43-2,4.93,4.93,0,0,0-1.23-1.57,5.56,5.56,0,0,0-1.89-1,7.84,7.84,0,0,0-2.43-.36H231.89l5.7-6.09h11.06a16.21,16.21,0,0,1,5,.73,11.75,11.75,0,0,1,3.86,2.05,9.07,9.07,0,0,1,2.49,3.13A9.25,9.25,0,0,1,260.9,324.08Z"/><path class="cls-6" d="M286.49,323.48a10.28,10.28,0,0,1,5.79,1.35,4.49,4.49,0,0,1,2,4,9.51,9.51,0,0,1-.63,3.5,6.86,6.86,0,0,1-2,2.78A9.66,9.66,0,0,1,288,336.9a18.49,18.49,0,0,1-5.3.65h-21.8l5.7-6h17.75a3.6,3.6,0,0,0,2.13-.49,1.72,1.72,0,0,0,.67-1.5c0-.94-.74-1.4-2.21-1.4H272.21c-2.66,0-4.61-.52-5.85-1.54a5.08,5.08,0,0,1-1.85-4.1,8.6,8.6,0,0,1,.63-3.31,6.84,6.84,0,0,1,2-2.66,10,10,0,0,1,3.55-1.76,19.06,19.06,0,0,1,5.25-.63h20.34l-5.74,6.09H274.31a4.06,4.06,0,0,0-2.14.43,1.66,1.66,0,0,0-.66,1.49c0,.89.74,1.33,2.24,1.33Z"/><path class="cls-6" d="M332.83,337.55H318.16a16.39,16.39,0,0,1-4-.42,7.21,7.21,0,0,1-2.6-1.17,4.22,4.22,0,0,1-1.4-1.77,5.67,5.67,0,0,1-.42-2.2,7.46,7.46,0,0,1,.38-2.45,6.17,6.17,0,0,1,1.05-1.89,6.63,6.63,0,0,1,1.51-1.35,6.29,6.29,0,0,1,1.78-.79,3.93,3.93,0,0,1-1.71-1.36,4.23,4.23,0,0,1-.74-2.59,6.65,6.65,0,0,1,.75-3.21,6.76,6.76,0,0,1,2.14-2.32,9.89,9.89,0,0,1,3.31-1.42,17.62,17.62,0,0,1,4.27-.47h9.8l-5.74,6.09H321.1a3.62,3.62,0,0,0-1.61.36,1.41,1.41,0,0,0-.73,1.39,1.08,1.08,0,0,0,.54,1,2.76,2.76,0,0,0,1.24.28h19l-4.66,5H331l-.56,3.22h8Zm-15.61-7.35c0,.89.66,1.33,2,1.33h5.43l.56-3.22h-5.43a3.16,3.16,0,0,0-1.94.49A1.7,1.7,0,0,0,317.22,330.2Z"/><path class="cls-6" d="M391,314.14l-16.69,15.68L373,337.55h-7.28l1.36-7.77-11.51-15.64h9.31l4.48,6.51.57.82c.25.34.5.69.76,1.07s.49.72.7,1,.36.57.45.73c.33-.32.75-.77,1.28-1.33s1.3-1.35,2.33-2.38l6.47-6.47Z"/><path class="cls-6" d="M406.82,313.75q7.62,0,11.42,2.4c2.54,1.6,3.8,4.1,3.8,7.51,0,4.8-1.61,8.39-4.83,10.74s-8.11,3.54-14.66,3.54q-7.64,0-11.43-2.42t-3.8-7.52q0-7.22,4.83-10.73T406.82,313.75Zm-3.22,18.1a41.67,41.67,0,0,0,5.72-.32,7.87,7.87,0,0,0,3.39-1.15,4.08,4.08,0,0,0,1.63-2.3,13.48,13.48,0,0,0,.42-3.69,4.57,4.57,0,0,0-.51-2.29,3.34,3.34,0,0,0-1.61-1.4,8.7,8.7,0,0,0-2.81-.68,40.11,40.11,0,0,0-4.1-.18,41,41,0,0,0-5.7.32,7.87,7.87,0,0,0-3.38,1.15A4.09,4.09,0,0,0,395,323.6a13.6,13.6,0,0,0-.42,3.7,4.49,4.49,0,0,0,.53,2.31,3.56,3.56,0,0,0,1.61,1.38,8.5,8.5,0,0,0,2.78.68A39.42,39.42,0,0,0,403.6,331.85Z"/><path class="cls-6" d="M455.61,327.33q-1.89,10.6-16.45,10.61-7.53,0-11-2.1a6.88,6.88,0,0,1-3.48-6.3,12.39,12.39,0,0,1,.21-2.21l2.34-13.19h7.25l-2.38,13.19a9.35,9.35,0,0,0-.11,1.3,2.89,2.89,0,0,0,.39,1.54,2.59,2.59,0,0,0,1.33,1,9.28,9.28,0,0,0,2.52.56,36.27,36.27,0,0,0,4,.18,21,21,0,0,0,3.55-.25,7,7,0,0,0,2.4-.8,4,4,0,0,0,1.45-1.44,6.18,6.18,0,0,0,.72-2.1l2.34-13.19H458Z"/><polygon class="cls-6" points="365.58 142.06 277.43 142.06 233.36 218.4 277.43 294.73 365.58 294.73 409.65 218.4 365.58 142.06"/><polygon class="cls-2" points="365.58 142.06 277.43 142.06 233.36 218.4 277.43 294.73 365.58 294.73 409.65 218.4 365.58 142.06"/><path d="M315,191.3c-14.83-5.33-19.78-3-23.2,7.22-1.06,2.93-3.52,14-3.52,16.84-1.24-1.47-1.65-8.73.11-15.75-2.24-.81-9.14.06-9,10.32.05,13.14,4.11,17.45,7.14,19.86-1.44,4.45-2.21,8.28-1.7,9.36.87,1.85,3.72,3.89,11.13,6.55s11,3.19,12.47,1.93c2.33-2.23,5.15-8.61,5.15-8.61a41.24,41.24,0,0,1-16.26-3.52,35.41,35.41,0,0,1-3.52-1.89c6.68,2.07,17,3.87,19.55,2.54,5.81-2.76,11.55-14.55,15-24.26C332.15,201.48,329.87,196.62,315,191.3Z"/><path d="M355.34,216.86c-8.17-2.94-10.9-1.67-12.79,4a54.34,54.34,0,0,0-1.94,9.29c-.68-.81-.91-4.82.06-8.69-1.24-.44-5,0-5,5.69,0,7.25,2.27,9.63,3.94,11-.79,2.45-1.22,4.56-.93,5.16.47,1,2,2.14,6.13,3.6s6.07,1.76,6.88,1.07c1.28-1.23,2.84-4.74,2.84-4.74a22.71,22.71,0,0,1-9-2,18.23,18.23,0,0,1-1.94-1c3.68,1.14,9.39,2.13,10.78,1.4,3.2-1.52,6.37-8,8.3-13.38C364.78,222.47,363.53,219.79,355.34,216.86Z"/></svg>