<svg id="Capa_1" data-name="Capa 1" xmlns="http://www.w3.org/2000/svg" viewBox="0 0 640 480"><defs><style>.cls-8{fill:#ffed00;}.cls-2{fill:#5d5d5d;}.cls-3{fill:none;stroke:#000;stroke-miterlimit:10;stroke-width:8px;}.cls-4{fill:#fff;}</style></defs><path class="cls-8" d="M221.11,321.66a8.62,8.62,0,0,1-.93,4,9.13,9.13,0,0,1-2.62,3.13,12.69,12.69,0,0,1-4.15,2.05,19.11,19.11,0,0,1-5.5.74H195.66l-1,6H187.4l2.1-12h20.16a4.66,4.66,0,0,0,3-.87,2.77,2.77,0,0,0,1.08-2.24,2,2,0,0,0-.78-1.63,3.74,3.74,0,0,0-2.33-.61H190.45l5.88-6.09H211a15.65,15.65,0,0,1,4.32.54,9.09,9.09,0,0,1,3.15,1.54,6.61,6.61,0,0,1,1.94,2.38A6.87,6.87,0,0,1,221.11,321.66Z"/><path class="cls-8" d="M250.33,331.53l-5.74,6H222.05l4.17-23.41h27.09l-5.78,6.09H232.38l-.49,2.8H250.4l-5,5.32H230.94l-.56,3.18Z"/><path class="cls-8" d="M285,337.55h-9.7l-4.13-6.19H260l-1.08,6.19h-7.25l2.1-12h20.37a7,7,0,0,0,1.74-.21,5.29,5.29,0,0,0,1.43-.59,3,3,0,0,0,1-1,2.27,2.27,0,0,0,.37-1.27,1.92,1.92,0,0,0-.95-1.74,5.07,5.07,0,0,0-2.62-.57H254.71l5.81-6.09h15.05a23,23,0,0,1,3.73.31,11.27,11.27,0,0,1,3.46,1.14,7.3,7.3,0,0,1,2.54,2.19,5.8,5.8,0,0,1,1,3.46,8.45,8.45,0,0,1-.54,3,8.8,8.8,0,0,1-1.54,2.59,9.2,9.2,0,0,1-2.4,2,9.7,9.7,0,0,1-3.08,1.12c.32.31.69.69,1.1,1.16s.94,1.11,1.59,1.92Z"/><path class="cls-8" d="M311.72,323.48a10.29,10.29,0,0,1,5.8,1.35,4.51,4.51,0,0,1,2,4,9.51,9.51,0,0,1-.63,3.5,6.86,6.86,0,0,1-2,2.78,9.53,9.53,0,0,1-3.57,1.82,18.58,18.58,0,0,1-5.3.65H286.17l5.71-6h17.74a3.65,3.65,0,0,0,2.14-.49,1.74,1.74,0,0,0,.66-1.5c0-.94-.73-1.4-2.2-1.4H297.44c-2.66,0-4.61-.52-5.84-1.54a5.05,5.05,0,0,1-1.86-4.1,8.6,8.6,0,0,1,.63-3.31,6.77,6.77,0,0,1,2-2.66,9.92,9.92,0,0,1,3.55-1.76,19,19,0,0,1,5.25-.63h20.33l-5.74,6.09H299.54a4,4,0,0,0-2.13.43,1.65,1.65,0,0,0-.67,1.49c0,.89.75,1.33,2.24,1.33Z"/><path class="cls-8" d="M341.82,313.75q7.64,0,11.43,2.4t3.8,7.51c0,4.8-1.61,8.39-4.83,10.74s-8.11,3.54-14.67,3.54q-7.62,0-11.43-2.42T322.33,328q0-7.22,4.83-10.73T341.82,313.75Zm-3.22,18.1a41.73,41.73,0,0,0,5.73-.32,8,8,0,0,0,3.39-1.15,4.08,4.08,0,0,0,1.63-2.3,13.48,13.48,0,0,0,.42-3.69,4.57,4.57,0,0,0-.51-2.29,3.39,3.39,0,0,0-1.61-1.4,8.76,8.76,0,0,0-2.82-.68,39.9,39.9,0,0,0-4.09-.18,41.31,41.31,0,0,0-5.71.32,7.88,7.88,0,0,0-3.37,1.15A4.09,4.09,0,0,0,330,323.6a13.6,13.6,0,0,0-.42,3.7,4.49,4.49,0,0,0,.52,2.31,3.62,3.62,0,0,0,1.61,1.38,8.57,8.57,0,0,0,2.79.68A39.35,39.35,0,0,0,338.6,331.85Z"/><path class="cls-8" d="M382.07,337.94a3.21,3.21,0,0,1-2.69-1.26L367.3,323.8l-2.41,13.75h-6.58l3.39-19.42a6.53,6.53,0,0,1,.67-2,4.41,4.41,0,0,1,1.1-1.36,4.18,4.18,0,0,1,1.42-.77,5,5,0,0,1,1.57-.25,4.09,4.09,0,0,1,1.33.23,3.37,3.37,0,0,1,1.37,1l12.07,12.88,2.45-13.75h6.58l-3.46,19.39a6.47,6.47,0,0,1-.68,2A5.17,5.17,0,0,1,385,336.9a3.76,3.76,0,0,1-1.4.79A5.12,5.12,0,0,1,382.07,337.94Z"/><path class="cls-8" d="M399.33,337.55l5.46-6h8c.74,0,1.4,0,2,.07-.26-.42-.55-1-.88-1.59l-.91-1.8L409.9,322l-13.72,15.54H387.6l18.76-21.17a10.22,10.22,0,0,1,2.17-1.82,5.38,5.38,0,0,1,3-.81,4.17,4.17,0,0,1,2.61.75,5.79,5.79,0,0,1,1.55,1.88l10.89,21.17Z"/><path class="cls-8" d="M455.61,331.53l-5.78,6H429.15l4.16-23.41h7.21l-3.08,17.39Z"/><path class="cls-8" d="M242.56,344.14l-5.81,6.09h-8.33l-3.08,17.32H218.1l3-17.32h-11l5.81-6.09Z"/><path class="cls-8" d="M271.47,367.55h-9.69l-4.13-6.19H246.52l-1.09,6.19h-7.24l2.1-12h20.37a7,7,0,0,0,1.73-.21,5.23,5.23,0,0,0,1.44-.59,3.13,3.13,0,0,0,1-1,2.35,2.35,0,0,0,.36-1.27,1.91,1.91,0,0,0-.94-1.74,5.11,5.11,0,0,0-2.63-.57H241.23l5.81-6.09h15a22.8,22.8,0,0,1,3.73.31,11.33,11.33,0,0,1,3.47,1.14,7.17,7.17,0,0,1,2.53,2.19,5.73,5.73,0,0,1,1,3.46,8.5,8.5,0,0,1-2.08,5.6,8.88,8.88,0,0,1-2.4,2,9.61,9.61,0,0,1-3.08,1.12c.33.31.7.69,1.11,1.16s.94,1.11,1.59,1.92Z"/><path class="cls-8" d="M284,367.55l5.46-6h8.05c.75,0,1.4,0,2,.07-.26-.42-.55-1-.88-1.59l-.91-1.8-3.11-6.2-13.72,15.54h-8.58L291,346.38a10.22,10.22,0,0,1,2.17-1.82,5.41,5.41,0,0,1,3-.81,4.15,4.15,0,0,1,2.61.75,5.79,5.79,0,0,1,1.55,1.88l10.89,21.17Z"/><path class="cls-8" d="M321.14,367.55h-7.25l4.17-23.41h7.21Z"/><path class="cls-8" d="M349.31,367.94a3.21,3.21,0,0,1-2.69-1.26L334.54,353.8l-2.41,13.75h-6.58l3.39-19.42a6.53,6.53,0,0,1,.67-2,4.41,4.41,0,0,1,1.1-1.36,4.28,4.28,0,0,1,1.42-.77,5,5,0,0,1,1.57-.25A4.09,4.09,0,0,1,335,344a3.37,3.37,0,0,1,1.37,1l12.07,12.88,2.45-13.75h6.58L354,363.53a6.47,6.47,0,0,1-.68,2,5.17,5.17,0,0,1-1.11,1.38,3.76,3.76,0,0,1-1.4.79A5.12,5.12,0,0,1,349.31,367.94Z"/><path class="cls-8" d="M365,367.55h-7.24l4.16-23.41h7.21Z"/><path class="cls-8" d="M393.17,367.94a3.9,3.9,0,0,1-1.35-.23,3.78,3.78,0,0,1-1.35-1L378.4,353.8,376,367.55H369.4l3.4-19.42a6.81,6.81,0,0,1,.66-2,4.44,4.44,0,0,1,1.11-1.36A4.23,4.23,0,0,1,376,344a5,5,0,0,1,1.58-.25,4.18,4.18,0,0,1,1.33.23,3.35,3.35,0,0,1,1.36,1l12.08,12.88,2.45-13.75h6.58l-3.47,19.39a6.22,6.22,0,0,1-.68,2,5,5,0,0,1-1.1,1.38,3.83,3.83,0,0,1-1.4.79A5.22,5.22,0,0,1,393.17,367.94Z"/><path class="cls-8" d="M418.54,352.92h15l-2.59,14.63H414.87a14.92,14.92,0,0,1-5-.79,11.36,11.36,0,0,1-3.85-2.17,9.76,9.76,0,0,1-2.47-3.27,9.65,9.65,0,0,1-.87-4.09,11,11,0,0,1,1.29-5.29,13.26,13.26,0,0,1,3.5-4.15,16.63,16.63,0,0,1,5.18-2.69,20.57,20.57,0,0,1,6.34-1h16.76L430,350.23H417.91a9.43,9.43,0,0,0-3.06.49,8.14,8.14,0,0,0-2.54,1.36,6.86,6.86,0,0,0-1.73,2.07,5.32,5.32,0,0,0-.65,2.59,4.26,4.26,0,0,0,1.63,3.5,6.84,6.84,0,0,0,4.36,1.29h8.89l.59-3.39H413.26Z"/><polygon class="cls-2" points="365.58 142.06 277.43 142.06 233.36 218.4 277.43 294.73 365.58 294.73 409.65 218.4 365.58 142.06"/><polygon class="cls-3" points="365.58 142.06 277.43 142.06 233.36 218.4 277.43 294.73 365.58 294.73 409.65 218.4 365.58 142.06"/><path class="cls-4" d="M321.51,173.55c-14,0-22.63,5.38-27.05,12.86s-4.89,16.45-4.89,24v.4a40.53,40.53,0,0,0,.31,5,9.54,9.54,0,0,0-6.69,9.06c0,5.1,3.82,12.81,9.58,12.81.5,0,1-.05,1.54-.1,4.7,14.59,16.27,25.73,27.2,25.73,10.77,0,22.24-10.91,27.16-25.73.55,0,1.07.1,1.57.1,5.76,0,9.58-7.71,9.58-12.81a9.57,9.57,0,0,0-6.69-9.06,40.28,40.28,0,0,0,.3-5v-.4c0-7.53-.47-16.52-4.89-24S335.5,173.55,321.51,173.55Zm0,6.4c12.49,0,18.2,4.06,21.55,9.72,2.54,4.3,3.31,9.93,3.64,15.56a55.49,55.49,0,0,0-50.39,0c.32-5.63,1.1-11.26,3.64-15.56C303.29,184,309,180,321.51,180Zm0,25.63c11.62,0,21.92,4.86,25.46,6.71-.2,4-1,5.78-1.29,6.06s-.2.23-.7.25a9.22,9.22,0,0,1-2.52-.48c-4.54-1.4-12.2-6.13-20.95-6.13s-16.39,4.63-21,6a8,8,0,0,1-2.52.45c-.5,0-.55-.08-.72-.22s-1.08-2.08-1.27-5.94C299.58,210.44,309.88,205.58,321.51,205.58Zm0,12.82c6.31,0,13,4,19.08,5.86a13.85,13.85,0,0,0,4.66.72,7.45,7.45,0,0,0,4.82-2,5.9,5.9,0,0,0,.89-1.21,3.09,3.09,0,0,1,2.47,3c0,2.62-2.17,6.28-3.19,6.4a12.41,12.41,0,0,1-3-.49l-3-.73-1.09,3.6c-3.67,13.92-14.17,23.25-21.65,23.25s-18-9.33-21.66-23.22L298.78,230l-3,.76a12.63,12.63,0,0,1-3,.49c-1-.12-3.2-3.78-3.2-6.4a3.11,3.11,0,0,1,2.53-3,7.08,7.08,0,0,0,.87,1.11,7.54,7.54,0,0,0,4.79,2,14.55,14.55,0,0,0,4.64-.7C308.43,222.33,315.17,218.4,321.51,218.4Z"/><path class="cls-4" d="M331.51,223.49a19.43,19.43,0,0,1,3.79-1.15,5.77,5.77,0,0,1,2.74,0,2.74,2.74,0,0,1,2,2.45c.05,2.06-2.06,3.65-3.76,4.44a6.2,6.2,0,0,1-6.2-.49c-1.62-1-2.55-2.57-.85-4A10,10,0,0,1,331.51,223.49Z"/><path class="cls-4" d="M311.67,223.54a19.38,19.38,0,0,0-3.79-1.18,5.77,5.77,0,0,0-2.74,0,2.74,2.74,0,0,0-2.06,2.43c-.07,2.06,2,3.67,3.72,4.48a6.21,6.21,0,0,0,6.21-.45c1.63-1,2.57-2.55.87-4A9.35,9.35,0,0,0,311.67,223.54Z"/><path class="cls-8" d="M327.08,192.33l-2.39,2.53h-4.94a6.38,6.38,0,0,1-2.1-.33,4.76,4.76,0,0,1-1.61-.91,4,4,0,0,1-1.41-3.09,4.62,4.62,0,0,1,.55-2.22,5.34,5.34,0,0,1,1.47-1.74,6.9,6.9,0,0,1,2.17-1.14,8.61,8.61,0,0,1,2.66-.4h6.9L326,187.59H321a4.25,4.25,0,0,0-1.29.2,3.29,3.29,0,0,0-1.06.58,2.57,2.57,0,0,0-.72.86,2.16,2.16,0,0,0-.27,1.08,1.78,1.78,0,0,0,.19.83,1.86,1.86,0,0,0,.51.64,2.56,2.56,0,0,0,.79.41,3.52,3.52,0,0,0,1,.14Z"/><path class="cls-4" d="M314.69,246.05a10.91,10.91,0,0,0,14.62-.21,2.5,2.5,0,0,0-3.54-3.54c-.18.17-.39.32-.56.5.08-.08.43-.3.15-.12l-.31.21c-.19.12-.39.23-.59.33l-.33.16c-.29.14.48-.18.18-.08a10.75,10.75,0,0,1-1.37.4l-.37.07c-.31.06.55-.05.22,0l-.75,0c-.23,0-.45,0-.68,0l-.3,0c-.52,0,.45.08.14,0a9.54,9.54,0,0,1-1.38-.33l-.28-.1c-.49-.17.38.19.11,0l-.6-.3c-.21-.12-.42-.26-.63-.4s.08,0,.15.12c-.1-.11-.24-.2-.34-.3a2.5,2.5,0,0,0-3.54,3.54Z"/></svg>