<svg id="Capa_1" data-name="Capa 1" xmlns="http://www.w3.org/2000/svg" viewBox="0 0 640 480"><defs><style>.cls-9{fill:#04f4ff;}.cls-2{fill:none;stroke:#000;stroke-miterlimit:10;stroke-width:8px;}</style></defs><path class="cls-9" d="M262.85,323.1a10.37,10.37,0,0,1,5.79,1.34,4.51,4.51,0,0,1,2,4,9.55,9.55,0,0,1-.63,3.5,6.86,6.86,0,0,1-2,2.78,9.68,9.68,0,0,1-3.57,1.82,18.9,18.9,0,0,1-5.3.65H237.3l5.7-6h17.75a3.67,3.67,0,0,0,2.13-.49,1.77,1.77,0,0,0,.67-1.51c0-.93-.74-1.4-2.21-1.4H248.57q-4,0-5.85-1.54a5,5,0,0,1-1.85-4.09,8.56,8.56,0,0,1,.63-3.31,6.77,6.77,0,0,1,2-2.66,9.77,9.77,0,0,1,3.55-1.77,19.06,19.06,0,0,1,5.25-.63h20.34l-5.74,6.09H250.67a4,4,0,0,0-2.14.44,1.65,1.65,0,0,0-.66,1.49c0,.88.74,1.33,2.24,1.33Z"/><path class="cls-9" d="M301.91,337.17H291L285,331c-1-1.05-1.82-1.87-2.37-2.45s-1-1.08-1.27-1.47l-.49,3.36-1.19,6.72h-7.28l4.16-23.42h7.25l-.95,5.43q-.21,1.08-.45,2.13c-.17.7-.31,1.36-.42,2l2-1.56c.79-.61,1.78-1.37,3-2.25l7.77-5.71h10.5l-10.12,6.72L292.74,322c-.68.45-1.28.83-1.81,1.16l-1.41.87c-.42.26-.84.5-1.26.74.58.46,1.29,1.05,2.11,1.75s1.9,1.67,3.21,2.9Z"/><path class="cls-9" d="M311.64,337.17h-7.25l4.17-23.42h7.21Z"/><path class="cls-9" d="M342.61,331.15l-5.77,6H316.15l4.17-23.42h7.21l-3.08,17.4Z"/><path class="cls-9" d="M370.4,331.15l-5.77,6H343.94l4.17-23.42h7.21l-3.09,17.4Z"/><path class="cls-9" d="M395.91,323.1a10.38,10.38,0,0,1,5.8,1.34,4.53,4.53,0,0,1,2,4,9.55,9.55,0,0,1-.63,3.5,6.93,6.93,0,0,1-2,2.78,9.68,9.68,0,0,1-3.57,1.82,18.9,18.9,0,0,1-5.3.65H370.36l5.71-6h17.74a3.71,3.71,0,0,0,2.14-.49,1.76,1.76,0,0,0,.66-1.51c0-.93-.73-1.4-2.2-1.4H381.63c-2.66,0-4.6-.51-5.84-1.54a5,5,0,0,1-1.86-4.09,8.56,8.56,0,0,1,.63-3.31,6.7,6.7,0,0,1,2-2.66,9.77,9.77,0,0,1,3.55-1.77,19.06,19.06,0,0,1,5.25-.63h20.33L400,319.84H383.73a4,4,0,0,0-2.13.44,1.66,1.66,0,0,0-.67,1.49c0,.88.75,1.33,2.24,1.33Z"/><polygon class="cls-9" points="365.58 142.06 277.43 142.06 233.36 218.4 277.43 294.73 365.58 294.73 409.65 218.4 365.58 142.06"/><polygon class="cls-2" points="365.58 142.06 277.43 142.06 233.36 218.4 277.43 294.73 365.58 294.73 409.65 218.4 365.58 142.06"/><path d="M368.14,205.73l-45.85-18.2a2.05,2.05,0,0,0-1.54,0l-45.84,18.2a2.09,2.09,0,0,0,0,3.89l4.88,1.93v14.36a2.33,2.33,0,0,0,.1,4.16.88.88,0,0,0-.24.42l-1.73,8.4a.84.84,0,0,0,.82,1h4.33a.83.83,0,0,0,.81-1l-1.73-8.4a.79.79,0,0,0-.23-.42,2.34,2.34,0,0,0,.1-4.16V212.44l38.73,15.38a2.15,2.15,0,0,0,1.54,0l45.85-18.2a2.1,2.1,0,0,0,0-3.89"/><path d="M353.07,220,322,232.28a1.15,1.15,0,0,1-.89,0L290,220a1.17,1.17,0,0,0-1.62,1.09V235.2a1.16,1.16,0,0,0,.7,1.08l32,13.44a1.18,1.18,0,0,0,.94,0l32-13.44a1.17,1.17,0,0,0,.71-1.08V221.08a1.17,1.17,0,0,0-1.62-1.09"/></svg>