<svg class="icon icon--delier" viewBox="-38 0 512 512"/><path d="m178.128906 443.917969h-76.128906c-5.523438 0-10 4.476562-10 10 0 5.519531 4.476562 10 10 10h76.128906c5.519532 0 10-4.480469 10-10 0-5.523438-4.480468-10-10-10zm0 0"/><path d="m408 414.195312v-94.964843c0-.503907-.050781-.992188-.121094-1.472657-.8125-14.707031-6.234375-28.945312-15.492187-40.457031-10.070313-12.519531-24.257813-21.308593-39.949219-24.75l-82.808594-18.164062v-8.898438c22.722656-16.183593 37.570313-42.742187 37.570313-72.703125v-63.585937c0-49.183594-40.011719-89.199219-89.199219-89.199219s-89.199219 40.015625-89.199219 89.199219v63.585937c0 29.960938 14.847657 56.519532 37.570313 72.703125v8.898438l-82.808594 18.164062c-15.691406 3.441407-29.878906 12.230469-39.949219 24.75-9.257812 11.511719-14.679687 25.75-15.492187 40.457031-.070313.480469-.121094.96875-.121094 1.46875v94.96875c-16.261719 5.53125-28 20.945313-28 39.054688v17.5c0 20.597656 15.175781 37.714844 34.933594 40.765625.964844.3125 1.996094.484375 3.066406.484375h360c1.070312 0 2.101562-.171875 3.066406-.484375 19.757813-3.050781 34.933594-20.167969 34.933594-40.765625v-17.5c0-18.109375-11.738281-33.519531-28-39.054688zm-46.933594 77.804688h-286.132812c.6875-2.410156 1.066406-4.953125 1.066406-7.582031v-44.835938c0-15.207031-12.375-27.582031-27.582031-27.582031h-.417969v-82.769531h112v70.882812c0 4.042969 2.4375 7.691407 6.171875 9.238281 3.738281 1.546876 8.039063.691407 10.898437-2.167968l16.929688-16.929688 16.929688 16.929688c3.90625 3.90625 10.234374 3.90625 14.140624 0l16.929688-16.929688 16.929688 16.929688c1.914062 1.914062 4.46875 2.929687 7.074218 2.929687 1.285156 0 2.585938-.25 3.824219-.761719 3.734375-1.546874 6.171875-5.195312 6.171875-9.238281v-70.882812h112v82.769531h-.417969c-15.207031 0-27.582031 12.375-27.582031 27.582031v44.835938c0 2.628906.378906 5.171875 1.066406 7.582031zm-174.378906-254.753906c-.089844-.320313-.195312-.636719-.316406-.945313v-.113281c9.835937 3.742188 20.496094 5.796875 31.628906 5.796875s21.792969-2.054687 31.628906-5.796875v4.792969l-19.277344 68.25h-23.550781zm146.355469 31.523437v40.460938h-81.910157l15.539063-55.019531zm-77.042969 60.460938v46.738281l-6.929688-6.929688c-3.90625-3.902343-10.234374-3.902343-14.140624 0l-16.929688 16.929688-16.929688-16.929688c-1.953124-1.949218-4.511718-2.925781-7.070312-2.925781s-5.117188.976563-7.070312 2.925781l-6.929688 6.929688v-46.738281zm130.429688-20h-33.386719v-35.796875c16.550781 5.441406 29.132812 19.175781 33.386719 35.796875zm-168.429688-289.230469c36.101562 0 65.835938 27.785156 68.933594 63.097656h-137.867188c3.097656-35.3125 32.832032-63.097656 68.933594-63.097656zm67.035156 83.097656c-3.8125 8.363282-12.25 14.1875-22.023437 14.1875h-90.023438c-9.773437 0-18.210937-5.824218-22.023437-14.1875zm-136.234375 49.6875v-22.734375c6.953125 4.566407 15.261719 7.234375 24.1875 7.234375h90.023438c8.925781 0 17.234375-2.667968 24.1875-7.234375v22.734375c0 38.15625-31.042969 69.199219-69.199219 69.199219s-69.199219-31.042969-69.199219-69.199219zm21.785157 101.152344 15.445312 55.292969h-83.074219v-40.460938zm-87.628907 19.496094v35.796875h-33.386719c4.253907-16.621094 16.835938-30.355469 33.386719-35.796875zm-41.707031 218.566406c-11.71875 0-21.25-9.53125-21.25-21.25v-17.5c0-11.71875 9.53125-21.25 21.25-21.25h7.167969c4.179687 0 7.582031 3.402344 7.582031 7.582031v44.835938c0 4.179687-3.402344 7.582031-7.582031 7.582031zm374.75-21.25c0 11.71875-9.53125 21.25-21.25 21.25h-7.167969c-4.179687 0-7.582031-3.402344-7.582031-7.582031v-44.835938c0-4.179687 3.402344-7.582031 7.582031-7.582031h7.167969c11.71875 0 21.25 9.53125 21.25 21.25zm0 0"/><path d="m218 443.921875c-2.628906 0-5.210938 1.058594-7.070312 2.929687-1.859376 1.859376-2.929688 4.4375-2.929688 7.070313 0 2.628906 1.070312 5.199219 2.929688 7.066406 1.859374 1.859375 4.441406 2.933594 7.070312 2.933594s5.210938-1.070313 7.070312-2.933594c1.859376-1.859375 2.929688-4.4375 2.929688-7.066406 0-2.640625-1.070312-5.210937-2.929688-7.070313-1.859374-1.871093-4.441406-2.929687-7.070312-2.929687zm0 0"/></svg>