<svg class="icon icon--deliver1" viewBox="1 -45 511.99975 511" xmlns="http://www.w3.org/2000/svg"><path d="m482 16.5h-344c-16.542969 0-30 13.457031-30 30v47.855469l-90.929688-90.925781c-3.902343-3.90625-10.234374-3.90625-14.140624 0-3.90625 3.902343-3.90625 10.234374 0 14.140624l117.789062 117.789063-62.234375 62.234375-41.414063-41.414062c-3.902343-3.902344-10.234374-3.902344-14.140624 0-3.90625 3.90625-3.90625 10.238281 0 14.144531l83.125 83.125-.011719 9c-.035157 22.96875 7.863281 45.519531 21.957031 63.507812v64.542969c0 16.542969 13.457031 30 30 30h344c16.542969 0 30-13.457031 30-30v-228.011719c0-5.523437-4.476562-10-10-10s-10 4.476563-10 10v228.011719c0 5.511719-4.484375 10-10 10h-208.769531c.417969-.371094.828125-.753906 1.230469-1.15625 2.5625-2.5625 4.535156-5.492188 5.929687-8.621094 3.957031 1.980469 8.347656 3.035156 12.902344 3.035156 7.710937 0 14.960937-3.003906 20.417969-8.457031 5.453124-5.449219 8.457031-12.703125 8.457031-20.414062 0-4.550781-1.054688-8.9375-3.03125-12.890625 3.167969-1.421875 6.085937-3.414063 8.613281-5.941406 5.453125-5.453126 8.457031-12.707032 8.457031-20.417969 0-7.714844-3.003906-14.964844-8.457031-20.417969l-34.441406-34.441406c10.605468.773437 21.332031-3.789063 28.015625-12.921875l.328125-.449219c10.476562-14.324219 7.449218-34.566406-6.75-45.121094-8.957032-6.65625-21.089844-15.710937-36.0625-26.917968-21.003906-15.710938-47.007813-24.359376-73.238282-24.359376-.042968 0-.085937 0-.132812 0l-30.785156.03125-46.683594-46.683593v-67.855469c0-5.515625 4.484375-10 10-10h104.398438v101.976562c0 4.046876 2.4375 7.691407 6.175781 9.238282 3.734375 1.550781 8.035156.695312 10.894531-2.164063l21.730469-21.730469 21.730469 21.726563c3.902343 3.90625 10.234374 3.90625 14.140624 0l21.730469-21.726563 21.726563 21.726563c1.914062 1.914063 4.472656 2.929687 7.074218 2.929687 1.289063 0 2.589844-.25 3.824219-.761718 3.738281-1.546875 6.175781-5.191406 6.175781-9.238282v-101.976562h104.398438c5.515625 0 10 4.484375 10 10v35.988281c0 5.523438 4.476562 10 10 10s10-4.476562 10-10v-35.988281c0-16.542969-13.457031-30-30-30zm-354 374v-43.492188l32.675781 32.675782c.003907.003906.007813.007812.007813.007812l20.808594 20.808594h-43.492188c-5.515625 0-10-4.488281-10-10zm77.492188-209.496094h.109374c21.9375 0 43.6875 7.238282 61.253907 20.378906 14.992187 11.214844 27.144531 20.285157 36.117187 26.953126 5.414063 4.027343 6.554688 11.769531 2.539063 17.257812l-.328125.449219c-3.679688 5.027343-10.664063 6.320312-15.898438 2.945312l-38.375-24.738281c-4.992187-3.214844-11.570312-2.15625-15.296875 2.46875-3.730469 4.621094-3.375 11.273438.824219 15.472656l77.171875 77.171875c1.675781 1.675781 2.597656 3.902344 2.597656 6.273438 0 2.371093-.921875 4.597656-2.597656 6.273437-1.675781 1.675782-3.90625 2.601563-6.277344 2.601563-2.015625 0-3.929687-.675781-5.488281-1.910157l-38.730469-38.730468c-.265625-.265625-.546875-.511719-.835937-.742188l-3.957032-3.957031c-3.90625-3.902344-10.238281-3.90625-14.144531 0-3.902343 3.902344-3.902343 10.234375 0 14.140625l42.742188 42.742188c.441406.441406.902343.863281 1.367187 1.273437l11.285156 11.285156c1.675782 1.675781 2.597657 3.902344 2.597657 6.273438 0 2.371093-.921875 4.597656-2.597657 6.273437-1.675781 1.675782-3.90625 2.601563-6.277343 2.601563-2.367188 0-4.597657-.925781-6.273438-2.601563l-11.289062-11.289062c-.40625-.460938-.824219-.917969-1.269531-1.363282l-37.992188-37.992187c-.269531-.265625-.550781-.511719-.839844-.742187l-3.957031-3.957032c-3.902344-3.90625-10.234375-3.90625-14.140625 0-3.90625 3.902344-3.90625 10.234375 0 14.140625l43.476562 43.476563c2.746094 3.480468 2.523438 8.558594-.6875 11.769531-3.460937 3.457031-9.089843 3.457031-12.550781 0l-12.625-12.625c-.410156-.46875-.832031-.925781-1.273437-1.367187l-24.046875-24.050782c-.269531-.265625-.550781-.511718-.839844-.742187l-3.957031-3.957031c-3.902344-3.90625-10.234375-3.90625-14.140625 0s-3.90625 10.238281 0 14.144531l29.53125 29.53125c1.234375 1.558593 1.910156 3.472656 1.910156 5.488281 0 2.371094-.921875 4.601562-2.601563 6.277344-1.675781 1.675781-3.902343 2.597656-6.273437 2.597656s-4.597656-.921875-6.273437-2.597656l-52.378907-52.378906c-.003906-.003907-.007812-.007813-.007812-.011719l-24.589844-24.585938c-15.382813-15.386719-24.191406-36.6875-24.160156-58.441406l.023437-14.535156 66.90625-66.90625zm-112.183594 51.414063-20.683594-20.679688 62.234375-62.238281 20.683594 20.683594zm264.292968-118.082031-11.730468-11.730469c-3.90625-3.902344-10.238282-3.902344-14.140625 0l-21.730469 21.730469-21.730469-21.730469c-1.953125-1.953125-4.511719-2.929688-7.070312-2.929688-2.558594 0-5.117188.976563-7.070313 2.929688l-11.730468 11.730469v-77.835938h95.203124zm0 0"/><path d="m448 299.65625h-64c-5.523438 0-10 4.476562-10 10s4.476562 10 10 10h64c5.523438 0 10-4.476562 10-10s-4.476562-10-10-10zm0 0"/><path d="m448 340.902344h-43.332031c-5.523438 0-10 4.476562-10 10 0 5.519531 4.476562 10 10 10h43.332031c5.523438 0 10-4.480469 10-10 0-5.523438-4.476562-10-10-10zm0 0"/><path d="m364.667969 340.898438c-2.636719 0-5.207031 1.070312-7.066407 2.929687-1.871093 1.859375-2.933593 4.441406-2.933593 7.070313 0 2.632812 1.0625 5.210937 2.933593 7.070312 1.859376 1.859375 4.4375 2.929688 7.066407 2.929688 2.632812 0 5.210937-1.070313 7.070312-2.929688 1.863281-1.859375 2.929688-4.4375 2.929688-7.070312 0-2.628907-1.066407-5.210938-2.929688-7.070313-1.859375-1.859375-4.4375-2.929687-7.070312-2.929687zm0 0"/><path d="m502 112.488281c-2.628906 0-5.210938 1.070313-7.070312 2.929688-1.859376 1.863281-2.929688 4.441406-2.929688 7.070312 0 2.632813 1.070312 5.210938 2.929688 7.070313 1.859374 1.859375 4.441406 2.929687 7.070312 2.929687s5.210938-1.070312 7.070312-2.929687c1.859376-1.859375 2.929688-4.4375 2.929688-7.070313 0-2.628906-1.070312-5.207031-2.929688-7.070312-1.859374-1.859375-4.441406-2.929688-7.070312-2.929688zm0 0"/></svg>