<svg class="icon icon--gear" viewBox="0 0 3685.000000 3685.000000">

<g transform="translate(0.000000,3685.000000) scale(0.100000,-0.100000)"
stroke="none">

<path d="M19099 35921 c-13 -10 -66 -43 -117 -72 -237 -138 -254 -148 -487
-302 -213 -141 -214 -142 -395 -276 -120 -89 -384 -306 -527 -433 -570 -508
-1132 -1208 -1486 -1851 -10 -18 -37 -68 -62 -112 -83 -150 -231 -453 -304
-625 -18 -41 -38 -88 -46 -105 -26 -60 -64 -155 -145 -370 -11 -27 -22 -63
-26 -80 -4 -16 -10 -34 -14 -40 -6 -9 -70 -204 -120 -370 -56 -183 -141 -519
-180 -713 -38 -185 -69 -347 -79 -417 -6 -38 -20 -126 -31 -195 -10 -69 -29
-208 -40 -310 -11 -102 -23 -198 -25 -215 -3 -16 -14 -153 -25 -302 -38 -530
-36 -1284 5 -1843 20 -279 85 -887 100 -940 2 -8 11 -71 20 -140 9 -69 23
-161 31 -205 8 -44 21 -118 30 -165 38 -212 99 -515 134 -665 12 -49 28 -117
36 -150 17 -76 44 -179 82 -320 20 -71 35 -156 42 -240 6 -71 13 -137 15 -145
4 -15 27 -295 46 -560 17 -223 23 -1171 10 -1375 -28 -431 -79 -783 -162
-1110 -38 -150 -113 -387 -129 -410 -4 -5 -11 -21 -15 -35 -17 -58 -123 -262
-183 -354 -36 -55 -106 -141 -155 -193 -80 -84 -117 -108 -130 -85 -3 4 3 104
14 222 30 354 44 721 44 1170 0 684 -30 1072 -129 1705 -24 152 -77 394 -130
600 -71 271 -158 534 -242 730 -7 17 -24 59 -39 95 -33 78 -176 369 -210 425
-13 22 -30 51 -37 65 -33 62 -168 271 -220 340 -237 316 -533 605 -802 783
-126 84 -286 171 -416 226 -41 18 -84 36 -95 41 -52 22 -178 60 -200 60 -34 0
-32 -24 5 -78 25 -37 113 -211 156 -307 100 -226 179 -501 229 -793 80 -478
69 -1121 -30 -1667 -34 -188 -57 -305 -76 -385 -43 -183 -71 -297 -83 -340 -8
-25 -24 -81 -36 -125 -12 -44 -30 -105 -40 -135 -32 -102 -58 -185 -64 -205
-2 -11 -17 -51 -31 -90 -15 -38 -31 -86 -36 -105 -6 -19 -25 -73 -44 -120 -18
-47 -43 -112 -55 -145 -13 -33 -31 -79 -42 -102 -10 -23 -18 -45 -18 -49 0 -4
-9 -26 -20 -50 -11 -24 -29 -64 -40 -88 -11 -24 -20 -47 -20 -51 0 -4 -14 -37
-31 -74 -17 -36 -41 -88 -54 -116 -85 -186 -140 -298 -187 -385 -125 -229
-389 -775 -512 -1060 -74 -170 -82 -188 -120 -272 -14 -31 -26 -61 -26 -66 0
-6 -14 -41 -31 -79 -17 -37 -37 -86 -44 -108 -8 -22 -34 -94 -60 -160 -25 -66
-50 -131 -55 -145 -5 -14 -30 -83 -55 -155 -26 -71 -51 -146 -57 -165 -5 -19
-23 -75 -40 -125 -27 -81 -68 -217 -119 -395 -23 -81 -109 -431 -138 -565 -52
-237 -53 -243 -102 -555 -31 -202 -60 -479 -73 -719 -8 -154 -16 -226 -24
-229 -17 -5 -17 -299 -1 -304 8 -3 16 -78 25 -223 29 -495 91 -862 228 -1350
19 -67 94 -295 106 -320 11 -23 33 -84 61 -170 33 -101 9 -254 -43 -274 -13
-4 -81 -11 -153 -15 -71 -4 -200 -13 -285 -21 -85 -8 -231 -19 -325 -25 -93
-6 -181 -13 -195 -15 -14 -3 -74 -9 -135 -15 -436 -39 -789 -73 -1095 -105
-124 -13 -277 -29 -340 -36 -63 -6 -127 -18 -142 -25 -29 -15 -43 -50 -52
-134 -4 -30 -13 -100 -21 -155 -27 -186 -65 -529 -81 -730 -16 -215 -15 -268
17 -740 43 -636 49 -721 54 -750 3 -16 14 -118 25 -225 26 -253 48 -384 70
-408 19 -20 133 -38 415 -67 83 -8 236 -24 340 -35 105 -11 233 -25 285 -30
52 -6 147 -17 210 -25 63 -7 147 -17 185 -20 39 -4 95 -11 125 -16 30 -4 107
-13 170 -19 63 -6 223 -24 355 -40 132 -16 299 -34 370 -40 154 -13 208 -29
224 -68 6 -15 29 -99 51 -187 42 -166 74 -279 141 -500 51 -167 64 -202 110
-305 20 -47 68 -155 105 -240 37 -85 82 -180 100 -211 18 -30 42 -78 53 -105
47 -118 151 -333 184 -383 21 -29 37 -58 37 -64 0 -6 6 -18 14 -26 7 -9 28
-43 46 -76 17 -33 36 -64 40 -70 26 -31 80 -141 80 -161 0 -25 -111 -170 -219
-287 -31 -34 -79 -91 -106 -127 -27 -36 -72 -90 -101 -120 -28 -30 -75 -87
-105 -126 -30 -39 -85 -105 -123 -147 -37 -42 -92 -109 -122 -148 -30 -40 -63
-80 -73 -90 -10 -10 -40 -46 -67 -81 -26 -35 -52 -67 -59 -73 -14 -13 -274
-334 -376 -464 -42 -54 -91 -112 -108 -128 -17 -17 -49 -57 -71 -89 -22 -33
-64 -88 -95 -123 -36 -43 -55 -74 -55 -91 0 -27 162 -253 241 -335 21 -22 66
-77 101 -122 107 -139 576 -650 655 -714 18 -15 65 -60 105 -100 73 -74 340
-323 394 -367 16 -13 52 -45 79 -71 28 -26 88 -78 135 -117 46 -38 92 -76 101
-85 8 -9 60 -51 115 -94 54 -44 134 -107 177 -142 104 -84 113 -83 220 10 46
39 100 86 121 102 39 31 191 160 215 183 8 8 39 32 70 55 31 22 81 64 111 92
30 29 95 82 144 119 48 37 109 87 135 111 26 24 87 74 136 111 50 36 117 92
150 124 33 31 79 69 103 84 23 14 66 48 95 74 28 26 92 79 141 117 49 39 115
93 147 121 31 29 70 60 85 70 16 10 31 21 34 24 3 3 46 39 95 80 50 41 92 77
95 80 15 17 79 60 102 69 23 9 44 2 163 -58 74 -38 141 -73 148 -79 6 -5 66
-37 132 -72 66 -34 147 -79 180 -99 143 -86 524 -246 750 -316 66 -20 212 -66
325 -101 222 -71 248 -78 420 -125 166 -45 175 -53 184 -160 14 -159 28 -312
36 -399 5 -52 16 -167 24 -255 8 -88 20 -203 26 -255 5 -52 14 -149 20 -215 6
-66 17 -178 25 -250 8 -71 24 -211 35 -310 11 -99 25 -214 30 -255 6 -41 17
-142 25 -225 29 -281 50 -416 65 -426 37 -23 191 -49 495 -83 415 -47 1692
-41 2115 9 63 7 187 19 275 25 88 7 173 17 188 23 54 20 51 7 107 447 11 85
23 169 25 185 3 17 12 95 20 175 7 80 21 208 30 285 8 77 24 221 36 320 37
333 73 744 94 1084 11 181 17 226 30 241 19 20 88 42 270 85 66 15 138 34 160
41 22 6 108 33 190 59 300 94 616 210 690 253 11 7 67 34 125 60 58 26 146 69
195 96 139 76 298 167 315 181 8 7 40 26 70 42 75 41 176 101 218 130 46 31
90 30 134 -4 83 -65 188 -152 263 -218 44 -39 102 -89 130 -110 56 -45 158
-130 202 -168 15 -14 47 -40 70 -59 22 -18 100 -82 173 -143 72 -60 178 -148
235 -195 56 -47 142 -119 190 -160 48 -41 106 -88 129 -104 22 -16 61 -47 86
-70 51 -46 121 -105 195 -164 28 -22 65 -54 83 -71 18 -17 77 -67 130 -110 53
-43 112 -93 131 -110 19 -17 43 -31 53 -31 11 0 43 22 71 48 91 84 269 236
352 300 193 149 314 255 615 537 196 184 538 559 725 794 156 197 199 252 310
400 137 184 139 190 68 278 -26 32 -52 63 -58 69 -5 6 -37 47 -70 90 -82 107
-187 238 -196 244 -4 3 -36 42 -71 87 -57 75 -208 262 -423 523 -44 54 -102
125 -130 159 -27 33 -90 107 -138 163 -49 57 -112 135 -141 173 -30 39 -64 79
-76 90 -12 11 -67 76 -120 145 -54 69 -111 138 -127 155 -63 66 -93 110 -93
141 0 16 4 34 9 40 4 5 22 34 38 64 41 77 46 85 96 170 24 41 67 125 96 185
29 61 68 131 86 157 40 56 50 77 192 448 13 36 30 79 38 95 65 146 197 544
220 665 9 47 26 117 37 155 54 184 59 195 86 209 26 13 96 20 492 51 230 18
602 52 715 64 286 32 372 41 485 51 69 6 190 17 270 25 80 8 246 24 370 35
124 11 252 23 285 26 83 7 94 18 111 111 18 104 60 582 80 913 14 246 35 962
28 985 -1 6 -10 105 -19 220 -9 116 -25 302 -36 415 -10 113 -22 232 -25 265
-11 125 -36 243 -55 261 -13 11 -53 21 -126 30 -60 7 -155 19 -213 28 -117 17
-393 48 -635 71 -149 14 -251 24 -765 75 -107 11 -229 22 -270 25 -183 14
-636 69 -641 78 -7 11 15 76 81 232 23 55 48 118 55 140 7 22 25 72 40 110 64
172 152 470 196 660 60 268 87 406 115 600 8 55 16 107 19 115 2 8 12 89 20
180 9 91 20 210 25 265 6 55 12 177 15 270 6 188 11 235 25 235 6 0 10 74 10
185 0 111 -4 185 -10 185 -14 0 -19 48 -24 244 -8 284 -56 791 -101 1071 -8
50 -19 124 -25 165 -15 112 -80 474 -109 605 -11 50 -28 133 -39 185 -28 131
-79 344 -114 475 -16 61 -36 137 -44 170 -8 33 -19 74 -24 90 -5 17 -19 64
-31 105 -11 41 -29 102 -38 135 -10 33 -28 94 -40 135 -13 41 -29 91 -37 110
-7 19 -18 53 -23 75 -9 38 -44 145 -118 360 -46 135 -87 248 -153 420 -47 124
-146 375 -165 420 -58 133 -166 377 -203 455 -114 245 -288 655 -328 775 -7
22 -24 72 -39 110 -23 63 -127 376 -175 530 -24 75 -116 419 -134 500 -8 33
-28 121 -44 195 -17 74 -40 187 -52 250 -12 63 -28 147 -35 185 -13 61 -43
273 -76 530 -14 114 -45 500 -50 630 -5 135 -5 661 0 805 4 122 36 521 51 630
73 536 150 926 247 1250 71 240 125 396 143 414 5 5 10 18 10 28 0 29 -33 22
-97 -21 -32 -21 -139 -92 -238 -157 -161 -106 -253 -173 -490 -354 -370 -282
-798 -697 -1096 -1065 -350 -432 -656 -934 -844 -1385 -15 -36 -31 -73 -36
-83 -15 -27 -85 -218 -125 -337 -53 -157 -77 -239 -134 -455 -44 -170 -101
-493 -126 -715 -21 -184 -31 -739 -15 -824 18 -99 -4 -99 -91 0 -29 34 -107
121 -173 195 -149 166 -336 384 -433 504 -152 186 -268 331 -287 357 -11 15
-99 132 -196 260 -96 128 -218 294 -269 368 -111 160 -300 440 -300 445 0 1
-26 43 -58 91 -33 49 -72 111 -88 137 -16 27 -39 65 -51 85 -13 21 -39 64 -58
97 -20 33 -47 78 -61 100 -13 22 -27 47 -31 55 -3 8 -12 22 -18 30 -7 8 -34
56 -60 105 -26 50 -51 95 -55 100 -4 6 -26 45 -49 88 -22 42 -59 111 -81 152
-129 242 -295 588 -394 820 -26 61 -60 139 -75 175 -16 36 -41 97 -55 135 -15
39 -36 90 -46 115 -10 25 -28 72 -40 105 -12 33 -28 76 -36 95 -37 95 -179
524 -219 665 -19 66 -41 140 -49 165 -16 48 -76 282 -108 420 -46 203 -45 197
-123 600 -34 177 -88 599 -117 915 -20 213 -22 300 -22 785 1 513 2 561 28
820 34 352 73 655 110 850 37 191 58 298 71 355 8 33 26 114 41 180 14 66 32
140 39 165 7 25 25 90 40 145 55 205 192 634 230 720 7 17 16 41 20 55 3 14
10 34 15 45 5 11 23 56 40 100 17 44 37 94 45 112 8 17 15 34 15 37 0 3 15 38
34 78 18 40 46 100 61 133 58 127 127 265 148 297 32 47 38 65 23 77 -10 8
-19 6 -37 -8z m-211 -14378 c351 -285 579 -530 798 -858 33 -49 63 -97 67
-105 4 -8 30 -51 56 -95 27 -44 69 -120 94 -170 50 -101 74 -154 131 -288 60
-141 142 -424 181 -625 8 -40 16 -76 19 -81 3 -4 12 -64 20 -132 9 -68 21
-162 27 -209 16 -111 16 -748 0 -845 -6 -38 -18 -120 -25 -181 -13 -97 -47
-225 -101 -374 -24 -67 -79 -259 -105 -365 -29 -119 -58 -253 -64 -295 -4 -25
-13 -76 -21 -115 -34 -164 -56 -364 -64 -571 -10 -252 1 -575 23 -661 8 -32
20 -92 26 -133 6 -41 18 -102 26 -135 9 -33 20 -78 25 -100 6 -22 26 -91 46
-153 45 -141 40 -149 -54 -97 -202 111 -553 231 -813 279 -311 57 -842 72
-1155 32 -536 -68 -1028 -271 -1480 -609 -169 -127 -495 -437 -596 -567 -23
-30 -45 -57 -49 -60 -26 -23 -187 -249 -224 -315 -9 -16 -33 -57 -52 -90 -100
-172 -219 -457 -270 -645 -51 -192 -93 -434 -109 -635 -19 -225 -17 -677 4
-850 30 -265 126 -639 212 -833 101 -228 223 -450 306 -556 21 -27 56 -75 78
-107 93 -133 250 -301 334 -356 35 -24 73 -53 85 -65 175 -182 483 -406 746
-543 467 -242 1087 -380 1625 -361 363 12 683 73 1040 198 150 52 412 177 530
253 31 19 57 35 59 35 7 0 128 82 177 119 26 20 59 45 75 56 218 154 540 477
665 666 26 39 57 82 71 97 25 27 167 252 207 327 164 311 302 728 336 1020 4
28 13 88 21 135 49 295 32 649 -52 1094 -45 236 -134 503 -232 691 -12 22 -30
60 -40 85 -24 57 -164 291 -209 350 -19 25 -62 84 -96 131 -84 117 -160 201
-375 418 -101 101 -188 196 -194 210 -18 46 -38 221 -48 411 -8 140 -7 254 5
468 8 155 16 286 19 290 2 4 9 52 16 106 16 136 74 412 104 496 31 84 48 138
57 174 5 22 16 51 24 65 7 14 23 51 35 81 21 54 55 131 71 160 5 8 17 31 27
50 73 140 224 372 271 414 21 19 21 19 21 -10 0 -16 -7 -47 -15 -69 -20 -57
-18 -187 6 -355 24 -169 45 -261 104 -460 7 -25 16 -61 20 -80 4 -19 22 -80
40 -135 19 -55 38 -116 44 -135 10 -37 32 -98 76 -215 14 -38 30 -84 36 -102
5 -18 16 -45 24 -60 8 -15 15 -34 15 -40 0 -12 27 -77 56 -136 8 -16 14 -34
14 -40 0 -6 9 -29 19 -51 11 -23 31 -70 45 -106 15 -36 30 -72 35 -81 5 -8 21
-47 36 -85 30 -75 99 -224 147 -319 200 -397 194 -383 303 -710 117 -350 180
-686 191 -1010 3 -93 13 -217 22 -275 24 -151 24 -730 0 -915 -46 -354 -269
-1211 -347 -1339 -12 -18 -27 -51 -35 -72 -40 -108 -159 -351 -216 -443 -146
-232 -196 -304 -270 -391 -31 -36 -73 -87 -95 -115 -21 -27 -46 -57 -54 -66
-218 -225 -299 -304 -416 -405 -33 -29 -89 -77 -125 -108 -36 -31 -69 -56 -73
-56 -8 0 -125 -85 -137 -100 -16 -19 -221 -146 -315 -196 -38 -20 -81 -44 -95
-54 -69 -47 -208 -108 -510 -222 -213 -80 -501 -141 -805 -169 -155 -14 -640
-14 -858 1 -161 11 -398 44 -552 78 -198 44 -656 214 -810 300 -22 13 -58 33
-80 45 -22 13 -65 36 -95 52 -93 49 -337 216 -480 330 -120 95 -350 319 -508
496 -132 146 -200 235 -334 429 -109 159 -328 567 -328 610 0 7 -7 26 -15 43
-24 54 -118 330 -142 417 -48 180 -87 444 -104 690 -15 218 -6 700 16 855 8
61 19 146 25 190 5 44 17 132 25 195 9 63 20 173 25 245 23 306 87 652 175
955 20 68 40 131 45 141 5 9 23 58 40 110 17 52 34 103 39 114 5 11 23 63 40
115 43 134 70 212 80 235 25 58 51 132 51 145 0 8 7 28 15 43 8 15 19 42 24
60 6 18 22 64 36 102 15 39 33 88 40 110 8 22 35 99 60 170 26 72 51 146 56
165 5 19 16 51 23 70 7 19 23 69 36 110 12 41 27 86 32 100 6 14 18 58 29 98
10 39 28 107 40 150 30 110 67 287 99 467 62 357 79 1190 30 1505 -11 74 -30
156 -42 183 -25 55 -17 74 22 52 14 -8 32 -17 40 -21 20 -9 134 -65 168 -83
33 -18 175 -123 221 -165 117 -106 243 -264 357 -446 28 -45 124 -246 159
-330 14 -36 30 -73 35 -82 6 -10 14 -34 19 -55 6 -21 20 -65 31 -98 40 -109
112 -403 125 -505 3 -30 13 -86 20 -125 7 -38 16 -117 20 -175 3 -58 8 -115
11 -127 8 -39 48 -29 112 26 31 27 95 81 142 121 246 209 502 461 700 690 36
41 76 87 89 102 119 136 464 634 504 728 4 8 20 38 36 65 122 210 267 545 351
810 86 271 113 385 145 605 8 58 20 128 25 155 44 226 44 1054 0 1225 -5 19
-14 69 -19 110 -15 118 -72 382 -96 450 -7 19 -26 82 -43 140 -39 134 -70 222
-82 234 -13 13 -13 56 0 56 6 0 59 -39 118 -87z m-123 -7098 c272 -23 534 -93
792 -211 17 -8 35 -14 40 -14 16 0 313 -189 398 -253 196 -148 468 -422 557
-562 14 -22 34 -49 45 -60 16 -18 35 -45 80 -120 7 -11 19 -34 28 -52 8 -17
44 -93 80 -168 109 -229 155 -389 197 -690 27 -193 28 -442 4 -610 -46 -320
-91 -490 -181 -681 -29 -61 -56 -120 -59 -132 -30 -93 -246 -407 -381 -553
-44 -47 -91 -105 -105 -129 -22 -38 -120 -126 -190 -172 -14 -9 -43 -33 -65
-53 -22 -19 -53 -43 -70 -52 -16 -8 -37 -21 -45 -29 -22 -19 -263 -154 -350
-195 -122 -59 -311 -117 -530 -162 l-155 -32 -330 0 c-316 1 -336 2 -466 27
-156 31 -349 85 -460 128 -42 17 -78 30 -81 30 -3 0 -63 33 -134 73 -71 40
-136 76 -144 80 -80 36 -377 284 -509 425 -112 120 -122 132 -228 274 -148
199 -303 510 -362 724 -67 242 -115 577 -107 754 10 231 76 576 149 775 65
177 196 421 324 600 69 97 253 315 290 345 15 12 69 59 118 105 87 80 249 202
365 274 222 139 522 252 787 297 170 28 482 37 698 19z"/>
</g>
</svg>
