<svg class="icon icon--secretary" viewBox="0 0 512 512">
<g>
	<g>
		<path d="M258,0v40.588c-20.439-8.32-42.798-12.921-66.223-12.921c-96.495,0-175,77.877-175,173.602
			c0,34.71,28.239,62.949,62.949,62.949c0.569,0,1.132-0.028,1.698-0.043c12.194,21.307,30.379,38.763,52.244,50.057
			C56.242,338.904,0,411.503,0,497v15h383.554v-15c0-85.497-56.242-158.096-133.668-182.769
			c21.865-11.293,40.05-28.749,52.244-50.057c0.566,0.015,1.128,0.043,1.698,0.043c31.713,0,58.01-23.576,62.318-54.119
			l51.137-27.447H512V0H258z M68.557,232.266c-12.687-4.587-21.78-16.749-21.78-30.997c0-14.249,9.093-26.411,21.78-30.997
			c-2.498,9.925-3.831,20.308-3.831,30.997C64.726,211.958,66.06,222.341,68.557,232.266z M79.726,138.32
			c-6.913,0-13.561,1.136-19.789,3.205c22.934-49.44,73.402-83.858,131.84-83.858c23.844,0,46.36,5.732,66.223,15.874v19.342
			c-19.296-11.833-41.976-18.665-66.223-18.665c-47.185,0-88.442,25.857-110.353,64.145C80.858,138.348,80.295,138.32,79.726,138.32
			z M176.777,482H30.69c5.166-55.921,38.92-103.679,86.465-128.504l59.622,68.14V482z M146.638,341.634
			c14.333-4.171,29.479-6.411,45.139-6.411c15.66,0,30.807,2.24,45.139,6.411l-45.139,51.587L146.638,341.634z M266.399,353.496
			c47.545,24.825,81.299,72.583,86.465,128.504H206.777v-60.364L266.399,353.496z M191.778,298.32
			c-31.308-0.001-59.195-14.906-76.953-37.987h119.618v-30H99.174c-2.888-9.18-4.447-18.943-4.447-29.064
			c0-53.514,43.537-97.051,97.051-97.051c25.576,0,48.868,9.949,66.223,26.175v52.258h29.029c1.176,6.028,1.799,12.251,1.799,18.618
			C288.829,254.783,245.292,298.32,191.778,298.32z M336.776,201.268c0.001,14.25-9.092,26.412-21.779,30.997
			c2.498-9.925,3.831-20.307,3.831-30.997c0-6.324-0.471-12.539-1.368-18.618h13.534c3.637,5.291,5.774,11.689,5.782,18.579
			C336.776,201.242,336.776,201.255,336.776,201.268z M482,152.651h-72.259l-42.39,22.752l0.315-22.752H288V30h194V152.651z"/>
	</g>
</g>
<g>
	<g>
		<rect x="256" y="411.67" width="32" height="30"/>
	</g>
</g>
<g>
</g>
<g>
</g>
<g>
</g>
<g>
</g>
<g>
</g>
<g>
</g>
<g>
</g>
<g>
</g>
<g>
</g>
<g>
</g>
<g>
</g>
<g>
</g>
<g>
</g>
<g>
</g>
<g>
</g>
</svg>
