<svg class="icon icon--spotify" viewBox="0 0 262 262">
<path d="M131,0C58.767,0,0,58.767,0,131s58.767,131,131,131s131-58.767,131-131S203.233,0,131,0z M191.764,177.705
	c-1.203,3.214-4.253,5.198-7.494,5.198c-0.932,0.001-1.879-0.163-2.803-0.509c-23.532-8.806-50.552-13.471-78.14-13.492
	c-0.08,0-0.162,0-0.242,0c-12.735,0-25.382,0.981-37.596,2.917c-4.366,0.693-8.462-2.285-9.154-6.649
	c-0.692-4.364,2.285-8.462,6.649-9.154c13.039-2.067,26.53-3.115,40.099-3.115c0.086,0,0.171,0,0.258,0
	c29.477,0.022,58.432,5.038,83.733,14.507C191.213,168.956,193.312,173.566,191.764,177.705z M204.035,144.054
	c-1.353,3.616-4.784,5.848-8.431,5.848c-1.048,0-2.113-0.184-3.153-0.573c-26.914-10.071-57.818-15.406-89.371-15.429
	c-0.092,0-0.187,0-0.278,0c-14.565,0-29.029,1.122-43,3.335c-4.908,0.775-9.52-2.572-10.297-7.481
	c-0.778-4.909,2.571-9.52,7.481-10.297c14.995-2.375,30.497-3.555,46.11-3.557c33.677,0.024,66.758,5.754,95.664,16.57
	C203.415,134.212,205.777,139.398,204.035,144.054z M217.524,108.604c-1.503,4.018-5.316,6.498-9.367,6.498
	c-1.165,0-2.349-0.205-3.503-0.637c-30.279-11.332-65.051-17.337-100.556-17.365c-0.096,0-0.192,0-0.288,0
	c-16.393,0-32.675,1.263-48.403,3.755c-5.453,0.866-10.578-2.857-11.442-8.312c-0.864-5.455,2.857-10.578,8.312-11.442
	c16.759-2.655,34.097-4.001,51.532-4.001c0.103,0,0.203,0,0.305,0c37.867,0.03,75.057,6.474,107.549,18.634
	C216.836,97.669,219.459,103.431,217.524,108.604z"/>

</svg>
