<svg class="icon icon--entrenamiento_funcional" viewBox="0 0 66.000000 81.000000" preserveAspectRatio="xMidYMid meet">

<g transform="translate(0.000000,81.000000) scale(0.100000,-0.100000)" stroke="none">
<path d="M350 724 c0 -82 -2 -88 -40 -153 -46 -77 -48 -87 -19 -94 17 -5 19
-9 10 -24 -26 -45 -40 -55 -64 -49 -15 3 -29 1 -34 -7 -16 -20 -53 -200 -47
-224 3 -12 -2 -42 -11 -66 -18 -48 -17 -98 3 -105 8 -2 12 10 12 40 1 24 7 54
15 68 8 14 14 36 15 50 0 17 15 41 43 68 41 41 45 42 109 42 74 0 82 6 91 64
7 46 13 54 29 38 7 -7 18 -12 25 -12 11 0 13 19 11 83 l-3 82 -30 2 c-16 1
-45 5 -64 9 l-33 7 4 133 c4 107 2 134 -9 134 -10 0 -13 -21 -13 -86z m-5
-194 c3 -5 2 -10 -4 -10 -5 0 -13 5 -16 10 -3 6 -2 10 4 10 5 0 13 -4 16 -10z
m-8 -166 c-7 -7 -57 15 -57 24 0 5 12 22 28 38 l27 29 3 -44 c2 -23 1 -45 -1
-47z"/>
<path d="M404 635 c-19 -29 -11 -60 21 -81 37 -24 85 6 85 53 0 53 -76 74
-106 28z"/>
<path d="M25 500 c-3 -5 8 -16 24 -24 24 -13 30 -13 34 -2 3 8 -5 18 -19 25
-30 13 -31 13 -39 1z"/>
<path d="M605 498 c-28 -15 -28 -15 -21 -27 9 -14 56 8 56 26 0 16 -8 16 -35
1z"/>
<path d="M10 380 c0 -5 13 -10 30 -10 17 0 30 5 30 10 0 6 -13 10 -30 10 -17
0 -30 -4 -30 -10z"/>
<path d="M600 380 c0 -5 14 -10 30 -10 17 0 30 5 30 10 0 6 -13 10 -30 10 -16
0 -30 -4 -30 -10z"/>
<path d="M46 283 c-19 -10 -25 -18 -18 -25 13 -13 64 13 54 29 -5 8 -15 7 -36
-4z"/>
<path d="M580 280 c0 -15 40 -32 58 -25 14 5 13 9 -8 20 -29 17 -50 19 -50 5z"/>
</g>
</svg>
