<svg class="icon icon--famility" viewBox="0 0 256.000000 256.000000" preserveAspectRatio="xMidYMid meet">

<g transform="translate(0.000000,256.000000) scale(0.100000,-0.100000)"
stroke="none">
<path d="M230 2553 c-39 -14 -54 -78 -24 -107 12 -13 39 -16 129 -16 63 0 125
-4 138 -9 30 -12 39 -43 20 -70 -13 -20 -24 -21 -179 -21 -97 0 -173 -4 -185
-11 -41 -21 -44 -86 -5 -111 6 -4 64 -8 129 -8 132 0 157 -8 157 -48 0 -49
-11 -52 -196 -52 l-173 0 -20 -26 c-26 -33 -26 -45 0 -78 l20 -26 165 0 c95 0
174 -4 185 -10 26 -14 26 -66 0 -80 -11 -5 -83 -10 -160 -10 -128 0 -143 -2
-161 -20 -26 -26 -26 -64 0 -90 19 -19 33 -20 303 -20 262 0 285 -1 300 -18
10 -10 17 -24 17 -31 0 -8 -34 -55 -75 -106 -41 -50 -75 -101 -75 -112 0 -24
30 -53 54 -53 10 0 130 109 266 242 137 133 257 246 267 250 10 3 60 7 111 7
l94 1 -7 30 c-9 42 25 114 67 140 58 35 158 23 198 -25 7 -9 22 -21 32 -26 17
-9 18 -1 18 185 l0 195 -237 3 -238 3 -111 68 -112 67 -348 -1 c-192 0 -356
-3 -364 -6z"/>
<path d="M1996 2539 l-26 -20 0 -165 c0 -95 -4 -174 -10 -185 -7 -12 -21 -19
-40 -19 -19 0 -33 7 -40 19 -5 11 -10 83 -10 160 0 128 -2 143 -20 161 -11 11
-31 20 -45 20 -14 0 -34 -9 -45 -20 -19 -19 -20 -33 -20 -303 0 -268 -1 -285
-19 -301 -27 -24 -43 -17 -141 64 -47 38 -94 70 -106 70 -25 0 -54 -29 -54
-54 0 -10 109 -129 241 -264 133 -136 245 -257 250 -270 5 -13 9 -64 9 -113
l0 -89 48 0 c52 0 104 -25 122 -61 39 -71 31 -132 -25 -199 -19 -23 -35 -44
-35 -46 0 -2 88 -4 194 -4 l195 0 3 238 3 237 68 111 67 112 0 347 c0 394 -2
404 -72 405 -50 0 -58 -20 -58 -145 0 -63 -4 -125 -9 -138 -12 -30 -43 -39
-70 -20 -20 13 -21 24 -21 179 0 97 -4 173 -11 185 -21 41 -86 44 -111 5 -4
-6 -8 -64 -8 -129 0 -132 -8 -157 -48 -157 -49 0 -52 11 -52 196 l0 173 -26
20 c-15 12 -32 21 -39 21 -7 0 -24 -9 -39 -21z"/>
<path d="M138 1403 l-3 -238 -68 -111 -67 -112 0 -347 c0 -394 2 -404 72 -405
50 0 58 20 58 145 0 63 4 125 9 138 12 30 43 39 70 20 20 -13 21 -24 21 -179
0 -97 4 -173 11 -185 21 -41 86 -44 111 -5 4 6 8 64 8 129 0 132 8 157 48 157
49 0 52 -11 52 -196 l0 -173 26 -20 c33 -26 45 -26 78 0 l26 20 0 165 c0 95 4
174 10 185 14 26 66 26 80 0 5 -11 10 -82 10 -158 0 -109 3 -143 16 -161 19
-28 67 -29 94 -2 19 19 20 33 20 303 0 262 1 285 18 300 10 10 25 17 32 17 7
0 55 -34 105 -75 51 -41 101 -75 112 -75 24 0 53 30 53 54 0 10 -108 129 -241
264 -132 136 -245 257 -250 270 -5 13 -9 62 -9 110 l0 87 -50 1 c-40 0 -57 6
-87 31 -76 60 -79 148 -8 233 19 23 35 44 35 46 0 2 -88 4 -194 4 l-195 0 -3
-237z"/>
<path d="M1700 899 c-135 -133 -255 -245 -268 -250 -13 -5 -64 -9 -113 -9
l-91 0 7 -30 c9 -42 -25 -114 -67 -140 -58 -35 -158 -23 -198 25 -7 9 -22 21
-32 26 -17 9 -18 1 -18 -185 l0 -195 238 -3 237 -3 111 -67 112 -68 347 0
c394 0 404 2 405 72 0 50 -20 58 -145 58 -63 0 -125 4 -138 9 -30 12 -39 43
-20 70 13 20 24 21 179 21 97 0 173 4 185 11 41 21 44 86 5 111 -6 4 -64 8
-129 8 -132 0 -157 8 -157 48 0 49 11 52 196 52 l173 0 20 26 c26 33 26 45 0
78 l-20 26 -165 0 c-95 0 -174 4 -185 10 -12 7 -19 21 -19 40 0 19 7 33 19 40
11 5 84 10 165 10 138 0 146 1 160 22 22 31 20 64 -4 88 -19 19 -33 20 -303
20 -268 0 -285 1 -301 19 -24 27 -17 43 64 141 38 47 70 94 70 106 0 26 -30
54 -56 53 -11 0 -121 -100 -264 -240z"/>
</g>
</svg>
