<svg class="icon icon--golpeo" viewBox="0 0 245.000000 205.000000" preserveAspectRatio="xMidYMid meet">

<g transform="translate(0.000000,205.000000) scale(0.100000,-0.100000)"
stroke="none">
<path d="M661 1908 c-354 -76 -647 -140 -649 -143 -3 -3 6 -227 21 -498 15
-270 27 -502 27 -513 0 -19 17 -28 123 -67 67 -25 115 -48 107 -51 -8 -3 -58
-15 -110 -26 -52 -12 -96 -23 -99 -26 -2 -2 77 -4 176 -4 l180 0 7 93 c3 50
13 238 21 417 9 179 19 341 22 360 4 19 17 -142 29 -359 14 -262 26 -396 33
-400 6 -4 62 -25 123 -47 l111 -39 -44 -12 c-24 -6 -73 -18 -109 -26 -65 -15
-64 -15 143 -16 l207 -1 0 33 c2 86 37 668 42 672 2 3 10 -97 17 -223 6 -125
14 -246 17 -268 l6 -42 160 -58 c89 -32 156 -60 150 -62 -6 -2 -75 -14 -154
-27 l-143 -23 243 -1 242 -1 0 33 c1 69 38 709 42 712 2 3 12 -120 21 -273 10
-152 21 -280 25 -283 4 -3 86 -35 182 -70 99 -36 166 -65 155 -68 -11 -2 -85
-14 -165 -26 l-145 -23 241 -1 241 -1 7 78 c11 115 84 1307 81 1310 -2 2 -200
25 -441 52 -242 27 -452 51 -469 53 -16 2 -320 -59 -674 -135z"/>
<path d="M2257 968 c-10 -178 -21 -347 -24 -375 l-6 -53 107 0 c76 0 106 3
106 12 0 18 -149 700 -158 721 -4 10 -15 -127 -25 -305z"/>
<path d="M1301 299 c-51 -99 -91 -183 -88 -186 6 -6 881 -102 932 -103 29 0
36 9 163 229 73 126 132 231 132 235 0 3 -100 6 -223 6 l-222 0 -60 -162 -60
-163 -3 163 -2 162 -238 0 -237 0 -94 -181z"/>
</g>
</svg>
