<svg class="icon icon--superacion" viewBox="0 0 512.000000 512.000000">

<g transform="translate(0.000000,512.000000) scale(0.100000,-0.100000)"
stroke="none">
<path d="M4925 5080 c-71 -21 -272 -79 -445 -130 -430 -124 -410 -117 -410
-145 0 -13 4 -26 9 -30 6 -3 74 -19 153 -36 195 -43 221 -48 233 -49 6 0 -705
-477 -1580 -1060 -874 -583 -1591 -1064 -1593 -1068 -1 -5 209 -149 468 -322
258 -172 470 -317 470 -321 0 -4 -487 -425 -1082 -935 -596 -509 -1094 -938
-1108 -951 -14 -14 833 404 1883 929 1049 524 1907 956 1907 959 0 3 -214 148
-475 322 l-475 317 852 974 c469 536 854 973 856 972 1 -2 9 -83 16 -181 13
-186 20 -208 59 -182 11 7 102 196 204 422 235 522 243 542 229 542 -6 0 -18
3 -26 6 -8 3 -73 -12 -145 -33z"/>
</g>
</svg>
